<?xml version="1.0" encoding="utf-8"?>
<!-- Generator: Adobe Illustrator 16.0.0, SVG Export Plug-In . SVG Version: 6.00 Build 0)  -->
<!DOCTYPE svg PUBLIC "-//W3C//DTD SVG 1.1//EN" "http://www.w3.org/Graphics/SVG/1.1/DTD/svg11.dtd">
<svg version="1.1" id="Layer_1" xmlns="http://www.w3.org/2000/svg" xmlns:xlink="http://www.w3.org/1999/xlink" x="0px" y="0px"
	 width="841.89px" height="595.275px" viewBox="0 0 841.89 595.275" enable-background="new 0 0 841.89 595.275"
	 xml:space="preserve">
<g>
	<path fill="#FFFFFF" d="M530.396,295.586c0.282-0.132,2.605,8.124,2.605,8.124c-36.949,13.082-61.369,29.73-61.369,29.73
		S493.246,312.839,530.396,295.586"/>
	<path fill="#FFFFFF" d="M535.832,325.979c0.203-0.054-0.75-9.839-0.75-9.839c-45.33,16.61-68.369,35.97-68.369,35.97
		S493.316,337.119,535.832,325.979"/>
	<path fill="#FFFFFF" d="M534.357,350.847c0.123-0.021,1.51-12.059,1.312-12.003c-51.114,14.349-74.498,30.835-74.498,30.835
		S492.005,358.021,534.357,350.847"/>
	<path fill="#FFFFFF" d="M529.806,364.229c0,0-14.349,30.834-85.431,27.144C444.375,391.372,466.344,376.231,529.806,364.229"/>
	<path fill="#FFFFFF" d="M557.688,270.527l0.041-103.422h70.645l-0.004,83.281C628.369,250.387,589.281,258.617,557.688,270.527"/>
	<path fill="#FFFFFF" d="M557.69,283.717l0.018,11.808c37.628-11.163,70.653-16.365,70.653-16.365v-16.099
		C628.361,263.061,596.498,269.07,557.69,283.717"/>
	<path fill="#FFFFFF" d="M557.69,320.47l-0.009-11.985c40.652-12.393,70.674-16.708,70.674-16.708l0.006,16.19
		C628.361,307.967,586.639,313.664,557.69,320.47"/>
	<path fill="#FFFFFF" d="M557.708,333.18c28.558-7.166,70.653-12.719,70.653-12.719v18.306c0,0-33.1,2.451-70.67,8.2L557.708,333.18
		z"/>
	<path fill="#FFFFFF" d="M557.699,359.503l-0.017,27.688h70.681l-0.002-36.026C628.361,351.165,598.099,353.365,557.699,359.503"/>
	<path fill="#FFFFFF" d="M689.276,387.182l-0.007-39.896c16.787-1.15,70.655-1.613,70.655-1.613l-0.005,41.509H689.276z"/>
	<path fill="#FFFFFF" d="M689.287,334.912l-0.009-20.513c35.64-2.575,70.646-2.435,70.646-2.435l0.007,21.396
		C759.931,333.36,727.639,333.211,689.287,334.912"/>
	<path fill="#FFFFFF" d="M689.287,302.031l-0.045-18.164c32.465-3.265,70.688-3.285,70.688-3.285l-0.009,19.014
		C759.922,299.596,723.501,299.502,689.287,302.031"/>
	<path fill="#FFFFFF" d="M689.287,271.357v-18.118c37.526-4.322,70.637-4.001,70.637-4.001v18.991
		C759.924,268.229,731.779,267.909,689.287,271.357"/>
	<path fill="#FFFFFF" d="M689.278,240.842c31.087-3.681,70.646-3.927,70.646-3.927l-0.004-25.913H802v-43.9H647.484l0.008,43.9
		h41.784L689.278,240.842z"/>
	<path fill="#FFFFFF" d="M441.553,308.354h-65.904v14.424c0,16.516,2.08,29.271,6.244,38.249
		c4.16,8.986,13.012,16.288,26.426,22.185c0.498,0.219,5.377,2.487,14.57,4.866c0,0,1.792-16.468,19.637-41.343
		c0,0-0.736-3.127-0.973-11.426V308.354z"/>
	<path fill="#FFFFFF" d="M529.857,233.833v-8.684c0-17.445-2.113-29.81-6.326-37.091c-4.221-7.283-12.822-13.319-25.813-18.112
		c-12.99-4.792-28.698-7.188-47.141-7.188c-16.866,0-31.264,2.2-43.182,6.596c-11.921,4.401-20.549,10.493-25.893,18.288
		c-5.344,7.792-8.01,20.123-8.01,36.982c0,11.698,1.892,21.303,5.674,28.828c3.783,7.524,8.548,13.413,14.309,17.674
		c5.762,4.26,17.514,11.093,35.256,20.488c17.74,9.314,28.834,15.995,33.369,19.956c1.346,1.176,3.336,3.28,4.945,9.442
		c16.373-13.807,34.396-25.169,57.068-36.233c-0.127-0.167-0.295-0.325-0.572-0.676c-6.844-8.722-28.16-22.179-59.779-37.43
		c-11.031-5.29-17.748-9.787-20.151-13.481c-2.523-3.695-3.782-9.193-3.782-16.497c0-5.674,1.104-9.907,3.311-12.699
		c2.209-2.795,5.459-4.194,9.768-4.194c3.964,0,6.797,1.045,8.493,3.129c1.696,2.088,2.551,6.947,2.551,14.566v16.335H529.857z"/>
</g>
<g>
	<path fill-rule="evenodd" clip-rule="evenodd" fill="#58595B" d="M225.448,309.997l-5.762-23.505l-35.031-9.697
		c-5.626,4.436-11.298,8.871-16.922,13.311c8.276,13.262,9.742,28.674,7.087,31.097c-19.115-10.061-12.578-43.4-10.426-46.832
		c11.708-6.54,20.352-7.956,32.93-7.866l-4.85-23.554l-10.519-7.592l10.519-11.158C225.54,247.662,230.158,290.515,225.448,309.997
		 M344.725,168.222c-18.478-7.135-36.818-13.539-58.495-17.241l8.14-17.974c-13.492-7.089-49.668-6.038-75.736-3.796
		c-14.405-3.019-25.795-4.207-40.153-4.207c-3.249,4.344-6.633,8.368-9.834,12.667c-24.833-5.307-67.458,4.48-95.584,24.832
		l-3.292,21.77l2.148,2.152c-15.732,9.968-22.408,16.282-30.915,27.164c-1.006,11.387-2.012,22.774-3.018,34.165l19.528,0.32
		c11.157-12.988,24.924-22.092,37.318-28.722c-63.844,108.893,17.426,198.896,107.75,193.18
		c76.011-4.8,163.365-101.575,103.588-217.374l24.194-7.271L344.725,168.222z"/>
	<path fill-rule="evenodd" clip-rule="evenodd" fill="#E7EAEC" d="M72.788,185.783l-1.236-2.104
		c131.259-94.257,260.229,82.322,149.459,193.275c-0.41,0.456-27.394,4.707-27.302,5.028
		C309.143,299.755,212.277,105.568,72.788,185.783"/>
	<path fill-rule="evenodd" clip-rule="evenodd" fill="#E7EAEC" d="M41.46,245.97c61.833-67.548,136.104-63.386,172.509-2.743
		c-27.122-41.026-98.648-59.637-157.234,2.743H41.46z"/>
	<path fill-rule="evenodd" clip-rule="evenodd" fill="#E7EAEC" d="M179.942,139.044c137.568,29.407,127.142,155.632,95.402,212.114
		c-4.482-0.685-6.725,5.9-1.234,7.318c5.718,1.235,7.592-5.533,3.566-6.769c45.689-84.289,24.331-189.889-88.084-224.281
		c117.08,8.691,155.954,131.258,120.786,202.648c-34.897,70.844-109.488,103.816-184.082,61.009
		c64.211,26.709,134.506-18.155,143.606-107.016C278.956,197.766,212.551,147.917,179.942,139.044"/>
	<polygon fill-rule="evenodd" clip-rule="evenodd" fill="#E7EAEC" points="321.901,173.528 341.247,169.458 329.176,186.059 
		309.964,191.682 	"/>
	<path fill-rule="evenodd" clip-rule="evenodd" fill="#E7EAEC" d="M319.797,172.019c6.039-1.417,12.393-2.652,18.431-4.07
		c-16.83-6.496-34.118-12.121-53.234-15.46c-4.573,1.647-8.553,3.568-13.127,5.169C293.271,160.951,305.347,165.568,319.797,172.019
		"/>
	<path fill-rule="evenodd" clip-rule="evenodd" fill="#E7EAEC" d="M270.815,155.828l-3.336-2.104l2.101-12.712l21.495-5.719
		l-6.95,15.414C284.125,150.707,271.502,156.286,270.815,155.828"/>
	<path fill-rule="evenodd" clip-rule="evenodd" fill="#E7EAEC" d="M269.445,139.227l21.907-5.899
		c-13.264-5.123-48.569-5.214-65.904-2.288C240.451,132.322,255.038,134.926,269.445,139.227"/>
	<path fill-rule="evenodd" clip-rule="evenodd" fill="#E7EAEC" d="M184.516,263.029c-6.951-4.71-14.544-9.329-21.495-14.042
		c-112.048,20.855-25.657,141.091,11.525,74.639C128.673,336.203,111.798,259.37,184.516,263.029"/>
	<polygon fill-rule="evenodd" clip-rule="evenodd" fill="#E7EAEC" points="195.218,264.082 190.965,243.821 163.205,225.389 
		165.308,247.755 	"/>
	<path fill-rule="evenodd" clip-rule="evenodd" fill="#E7EAEC" d="M185.887,280.409l31.375,8.781
		c33.295,191.626-250.897,58.174-86.438-81.178c9.925-0.595,16.466-0.458,25.108,1.051c-8.05,6.77-16.144,13.491-24.194,20.26
		c-14.588,6.22-43.082,20.033-46.557,65.951C77.36,398.769,242.415,390.261,185.887,280.409"/>
	<path fill-rule="evenodd" clip-rule="evenodd" fill="#E7EAEC" d="M179.806,234.17l11.159-11.206
		c-5.305-3.932-10.93-6.95-16.876-9.056l-14.818,9.377h3.934L179.806,234.17z"/>
	<path fill-rule="evenodd" clip-rule="evenodd" fill="#E7EAEC" d="M155.612,223.56c-6.037,0.64-12.074,1.51-18.11,3.659
		l20.534-17.836c4.665,0.592,9.283,1.784,13.904,3.613L155.612,223.56z"/>
	<path fill-rule="evenodd" clip-rule="evenodd" fill="#E7EAEC" d="M161.831,276.338c-25.474,17.744-1.691,50.856,11.342,46.098
		C162.241,315.393,156.892,297.833,161.831,276.338"/>
</g>
</svg>
