<?xml version="1.0" encoding="utf-8"?>
<!-- Generator: Adobe Illustrator 16.0.0, SVG Export Plug-In . SVG Version: 6.00 Build 0)  -->
<!DOCTYPE svg PUBLIC "-//W3C//DTD SVG 1.1//EN" "http://www.w3.org/Graphics/SVG/1.1/DTD/svg11.dtd">
<svg version="1.1" id="Layer_1" xmlns="http://www.w3.org/2000/svg" xmlns:xlink="http://www.w3.org/1999/xlink" x="0px" y="0px"
	 width="241.324px" height="130.176px" viewBox="0 0 241.324 130.176" enable-background="new 0 0 241.324 130.176"
	 xml:space="preserve">
<g>
	<g>
		<path fill="#FFFFFF" d="M152.773,94.215c0.084-0.039,0.758,2.363,0.758,2.363c-10.747,3.805-17.85,8.647-17.85,8.647
			S141.968,99.233,152.773,94.215"/>
		<path fill="#FFFFFF" d="M154.355,103.054c0.059-0.015-0.219-2.861-0.219-2.861c-13.186,4.832-19.887,10.462-19.887,10.462
			S141.989,106.294,154.355,103.054"/>
		<path fill="#FFFFFF" d="M153.928,110.289c0.033-0.006,0.438-3.508,0.381-3.492c-14.869,4.174-21.669,8.97-21.669,8.97
			S141.607,112.375,153.928,110.289"/>
		<path fill="#FFFFFF" d="M152.602,114.18c0,0-4.173,8.969-24.848,7.896C127.754,122.076,134.144,117.671,152.602,114.18"/>
		<path fill="#FFFFFF" d="M160.711,86.926l0.012-30.083h20.551l-0.002,24.223C181.271,81.067,169.9,83.461,160.711,86.926"/>
		<path fill="#FFFFFF" d="M160.713,90.762l0.004,3.436c10.945-3.248,20.551-4.761,20.551-4.761v-4.683
			C181.268,84.754,172,86.502,160.713,90.762"/>
		<path fill="#FFFFFF" d="M160.713,101.453l-0.002-3.486c11.824-3.605,20.555-4.86,20.555-4.86l0.002,4.709
			C181.268,97.816,169.131,99.473,160.713,101.453"/>
		<path fill="#FFFFFF" d="M160.717,105.149c8.307-2.084,20.551-3.699,20.551-3.699v5.324c0,0-9.627,0.713-20.555,2.385
			L160.717,105.149z"/>
		<path fill="#FFFFFF" d="M160.715,112.806l-0.004,8.054h20.557V110.38C181.268,110.38,172.467,111.021,160.715,112.806"/>
		<path fill="#FFFFFF" d="M198.988,120.856l-0.006-11.604c4.885-0.336,20.553-0.469,20.553-0.469v12.073H198.988z"/>
		<path fill="#FFFFFF" d="M198.988,105.653v-5.965c10.365-0.75,20.547-0.709,20.547-0.709l0.002,6.224
			C219.537,105.202,210.145,105.159,198.988,105.653"/>
		<path fill="#FFFFFF" d="M198.988,96.089l-0.012-5.283c9.441-0.951,20.559-0.957,20.559-0.957v5.53
			C219.535,95.38,208.941,95.354,198.988,96.089"/>
		<path fill="#FFFFFF" d="M198.988,87.168v-5.271c10.916-1.257,20.547-1.164,20.547-1.164v5.524
			C219.535,86.258,211.348,86.165,198.988,87.168"/>
		<path fill="#FFFFFF" d="M198.988,78.292c9.041-1.071,20.547-1.143,20.547-1.143v-7.537h12.238v-12.77H186.83l0.004,12.77h12.154
			V78.292z"/>
		<path fill="#FFFFFF" d="M126.932,97.928h-19.167v4.196c0,4.804,0.604,8.514,1.815,11.125c1.21,2.614,3.785,4.738,7.687,6.453
			c0.145,0.063,1.564,0.724,4.237,1.416c0,0,0.521-4.79,5.711-12.025c0,0-0.213-0.91-0.283-3.324V97.928z"/>
		<path fill="#FFFFFF" d="M152.617,76.252v-2.526c0-5.074-0.613-8.67-1.839-10.788c-1.229-2.119-3.731-3.874-7.509-5.268
			s-8.346-2.091-13.711-2.091c-4.907,0-9.094,0.64-12.561,1.918c-3.468,1.28-5.978,3.053-7.532,5.32
			c-1.554,2.266-2.33,5.853-2.33,10.757c0,3.402,0.551,6.196,1.65,8.386c1.101,2.188,2.487,3.9,4.162,5.14
			c1.676,1.239,5.094,3.227,10.255,5.96c5.159,2.708,8.386,4.652,9.704,5.805c0.393,0.342,0.971,0.954,1.439,2.746
			c4.762-4.016,10.004-7.321,16.599-10.539c-0.036-0.048-0.085-0.094-0.165-0.196c-1.99-2.537-8.191-6.452-17.389-10.888
			c-3.208-1.538-5.161-2.846-5.861-3.92c-0.733-1.074-1.099-2.674-1.099-4.798c0-1.651,0.322-2.882,0.963-3.694
			c0.643-0.813,1.588-1.22,2.842-1.22c1.151,0,1.976,0.304,2.47,0.91c0.493,0.608,0.742,2.021,0.742,4.237v4.751H152.617
			L152.617,76.252z"/>
	</g>
	<g>
		<path fill="#595A5C" d="M64.075,98.406l-1.676-6.837l-10.189-2.821c-1.636,1.291-3.286,2.581-4.922,3.872
			c2.407,3.857,2.834,8.341,2.062,9.045c-5.56-2.927-3.659-12.624-3.033-13.622c3.405-1.902,5.921-2.314,9.579-2.289l-1.411-6.851
			l-3.06-2.208l3.06-3.246C64.102,80.275,65.444,92.739,64.075,98.406 M98.77,57.169c-5.375-2.075-10.709-3.938-17.016-5.015
			l2.368-5.229c-3.924-2.061-14.446-1.756-22.029-1.104c-4.19-0.878-7.503-1.223-11.679-1.223c-0.946,1.263-1.93,2.434-2.861,3.684
			c-7.223-1.543-19.621,1.303-27.802,7.222l-0.957,6.332l0.625,0.626c-4.576,2.9-6.517,4.735-8.992,7.901
			c-0.293,3.312-0.585,6.624-0.877,9.937l5.679,0.094c3.246-3.778,7.25-6.427,10.855-8.354c-18.57,31.673,5.069,57.852,31.34,56.19
			c22.11-1.397,47.518-29.545,30.13-63.228l7.038-2.115L98.77,57.169z"/>
		<path fill="#E8EAEC" d="M19.671,62.276l-0.36-0.611c38.179-27.417,75.691,23.944,43.472,56.217
			c-0.118,0.133-7.968,1.369-7.941,1.462C88.42,95.427,60.243,38.945,19.671,62.276"/>
		<path fill="#E8EAEC" d="M10.559,79.783c17.986-19.647,39.589-18.437,50.178-0.797c-7.89-11.934-28.694-17.346-45.734,0.797H10.559
			z"/>
		<path fill="#E8EAEC" d="M50.839,48.682c40.014,8.554,36.981,45.268,27.749,61.697c-1.304-0.2-1.957,1.715-0.358,2.128
			c1.664,0.359,2.208-1.609,1.037-1.969c13.29-24.517,7.078-55.231-25.621-65.235c34.055,2.527,45.361,38.178,35.132,58.943
			c-10.15,20.606-31.846,30.196-53.542,17.745c18.676,7.77,39.124-5.28,41.77-31.127C79.639,65.762,60.324,51.263,50.839,48.682"/>
		<polygon fill="#E8EAEC" points="92.131,58.712 97.757,57.528 94.245,62.357 88.657,63.992 		"/>
		<path fill="#E8EAEC" d="M91.518,58.273c1.757-0.413,3.604-0.771,5.36-1.184c-4.896-1.89-9.923-3.525-15.484-4.497
			c-1.33,0.479-2.487,1.038-3.818,1.504C83.802,55.054,87.315,56.397,91.518,58.273"/>
		<path fill="#E8EAEC" d="M77.271,53.564L76.3,52.952l0.611-3.698l6.253-1.664l-2.022,4.484
			C81.143,52.075,77.47,53.697,77.271,53.564"/>
		<path fill="#E8EAEC" d="M76.873,48.735l6.371-1.715c-3.859-1.49-14.127-1.517-19.169-0.666
			C68.438,46.727,72.681,47.484,76.873,48.735"/>
		<path fill="#E8EAEC" d="M52.17,84.745c-2.022-1.37-4.231-2.713-6.253-4.085c-32.59,6.066-7.462,41.039,3.353,21.711
			C35.927,106.029,31.019,83.681,52.17,84.745"/>
		<polygon fill="#E8EAEC" points="55.282,85.052 54.045,79.158 45.971,73.797 46.582,80.303 		"/>
		<path fill="#E8EAEC" d="M52.568,89.8l9.127,2.554c9.684,55.738-72.979,16.921-25.143-23.612c2.886-0.173,4.789-0.133,7.303,0.306
			c-2.34,1.969-4.695,3.924-7.037,5.894c-4.245,1.809-12.532,5.826-13.542,19.183C21.001,124.227,69.01,121.752,52.568,89.8"/>
		<path fill="#E8EAEC" d="M50.799,76.351l3.246-3.259c-1.543-1.144-3.179-2.022-4.91-2.634l-4.31,2.728h1.145L50.799,76.351z"/>
		<path fill="#E8EAEC" d="M43.763,73.265c-1.756,0.187-3.512,0.439-5.268,1.065l5.973-5.188c1.356,0.172,2.7,0.519,4.043,1.051
			L43.763,73.265z"/>
		<path fill="#E8EAEC" d="M45.571,88.616c-7.409,5.161-0.492,14.793,3.299,13.408C45.69,99.976,44.135,94.868,45.571,88.616"/>
	</g>
</g>
</svg>
