<?xml version="1.0" encoding="utf-8"?>
<!-- Generator: Adobe Illustrator 16.0.0, SVG Export Plug-In . SVG Version: 6.00 Build 0)  -->
<!DOCTYPE svg PUBLIC "-//W3C//DTD SVG 1.1//EN" "http://www.w3.org/Graphics/SVG/1.1/DTD/svg11.dtd">
<svg version="1.1" id="Layer_1" xmlns="http://www.w3.org/2000/svg" xmlns:xlink="http://www.w3.org/1999/xlink" x="0px" y="0px"
	 width="241.324px" height="130.176px" viewBox="0 0 241.324 130.176" enable-background="new 0 0 241.324 130.176"
	 xml:space="preserve">
<g>
	<g>
		<path fill="#FFFFFF" d="M152.773,72.411c0.084-0.039,0.758,2.363,0.758,2.363c-10.747,3.805-17.849,8.647-17.849,8.647
			S141.968,77.429,152.773,72.411"/>
		<path fill="#FFFFFF" d="M154.356,81.25c0.059-0.015-0.22-2.861-0.22-2.861c-13.185,4.832-19.886,10.462-19.886,10.462
			S141.99,84.49,154.356,81.25"/>
		<path fill="#FFFFFF" d="M153.928,88.484c0.033-0.006,0.438-3.508,0.382-3.492c-14.869,4.174-21.67,8.97-21.67,8.97
			S141.607,90.571,153.928,88.484"/>
		<path fill="#FFFFFF" d="M152.602,92.376c0,0-4.172,8.969-24.847,7.896C127.754,100.271,134.144,95.867,152.602,92.376"/>
		<path fill="#FFFFFF" d="M160.712,65.122l0.012-30.083h20.551l-0.002,24.223C181.272,59.263,169.901,61.657,160.712,65.122"/>
		<path fill="#FFFFFF" d="M160.714,68.958l0.004,3.436c10.945-3.248,20.551-4.761,20.551-4.761V62.95
			C181.269,62.95,172.001,64.698,160.714,68.958"/>
		<path fill="#FFFFFF" d="M160.714,79.648l-0.002-3.486c11.824-3.605,20.555-4.86,20.555-4.86l0.002,4.709
			C181.269,76.012,169.132,77.669,160.714,79.648"/>
		<path fill="#FFFFFF" d="M160.718,83.345c8.307-2.084,20.551-3.699,20.551-3.699v5.324c0,0-9.627,0.713-20.555,2.385
			L160.718,83.345z"/>
		<path fill="#FFFFFF" d="M160.716,91.002l-0.004,8.054h20.557V88.576C181.269,88.576,172.468,89.217,160.716,91.002"/>
		<path fill="#FFFFFF" d="M198.989,99.052l-0.006-11.604c4.885-0.336,20.553-0.469,20.553-0.469v12.073H198.989z"/>
		<path fill="#FFFFFF" d="M198.989,83.849v-5.965c10.365-0.75,20.547-0.709,20.547-0.709l0.002,6.224
			C219.538,83.398,210.146,83.354,198.989,83.849"/>
		<path fill="#FFFFFF" d="M198.989,74.285l-0.012-5.283c9.441-0.951,20.559-0.957,20.559-0.957v5.53
			C219.536,73.576,208.942,73.55,198.989,74.285"/>
		<path fill="#FFFFFF" d="M198.989,65.364v-5.271c10.916-1.257,20.547-1.164,20.547-1.164v5.524
			C219.536,64.454,211.349,64.361,198.989,65.364"/>
		<path fill="#FFFFFF" d="M198.989,56.487c9.041-1.071,20.547-1.143,20.547-1.143v-7.537h12.238v-12.77h-44.943l0.004,12.77h12.154
			V56.487z"/>
		<path fill="#FFFFFF" d="M126.932,76.124h-19.167v4.196c0,4.804,0.604,8.514,1.815,11.125c1.21,2.614,3.785,4.738,7.687,6.453
			c0.145,0.063,1.564,0.724,4.237,1.416c0,0,0.521-4.79,5.711-12.025c0,0-0.213-0.91-0.283-3.324V76.124z"/>
		<path fill="#FFFFFF" d="M152.617,54.448v-2.526c0-5.074-0.613-8.67-1.839-10.788c-1.229-2.119-3.731-3.874-7.509-5.268
			s-8.346-2.091-13.711-2.091c-4.907,0-9.094,0.64-12.561,1.918c-3.468,1.28-5.978,3.053-7.532,5.32
			c-1.554,2.266-2.33,5.853-2.33,10.757c0,3.402,0.551,6.196,1.65,8.386c1.101,2.188,2.487,3.9,4.162,5.14
			c1.676,1.239,5.094,3.227,10.255,5.96c5.159,2.708,8.386,4.652,9.704,5.805c0.393,0.342,0.971,0.954,1.439,2.746
			c4.762-4.016,10.004-7.321,16.599-10.539c-0.036-0.048-0.085-0.094-0.165-0.196c-1.99-2.537-8.191-6.452-17.389-10.888
			c-3.208-1.538-5.161-2.846-5.861-3.92c-0.733-1.074-1.099-2.674-1.099-4.798c0-1.651,0.322-2.882,0.963-3.694
			c0.643-0.813,1.588-1.22,2.842-1.22c1.151,0,1.976,0.304,2.47,0.91c0.493,0.608,0.742,2.021,0.742,4.237v4.751H152.617
			L152.617,54.448z"/>
	</g>
	<g>
		<path fill="#595A5C" d="M64.075,76.602l-1.676-6.837L52.21,66.944c-1.636,1.291-3.286,2.581-4.922,3.872
			c2.407,3.857,2.834,8.341,2.062,9.045c-5.56-2.927-3.659-12.624-3.033-13.622c3.405-1.902,5.921-2.314,9.579-2.289l-1.411-6.851
			l-3.06-2.208l3.06-3.246C64.103,58.471,65.445,70.935,64.075,76.602 M98.77,35.365c-5.375-2.075-10.709-3.938-17.016-5.015
			l2.368-5.229c-3.924-2.061-14.446-1.756-22.029-1.104c-4.19-0.878-7.503-1.223-11.679-1.223c-0.946,1.263-1.93,2.434-2.861,3.684
			c-7.223-1.543-19.621,1.303-27.802,7.222l-0.957,6.332l0.625,0.626c-4.576,2.9-6.517,4.735-8.992,7.901
			c-0.293,3.312-0.585,6.624-0.877,9.937l5.679,0.094c3.246-3.778,7.25-6.427,10.855-8.354c-18.57,31.673,5.069,57.852,31.34,56.19
			c22.11-1.397,47.518-29.545,30.13-63.228l7.038-2.115L98.77,35.365z"/>
		<path fill="#E8EAEC" d="M19.672,40.472l-0.36-0.611c38.179-27.417,75.691,23.944,43.472,56.217
			c-0.118,0.133-7.968,1.369-7.941,1.462C88.42,73.623,60.244,17.141,19.672,40.472"/>
		<path fill="#E8EAEC" d="M10.559,57.979c17.986-19.647,39.589-18.437,50.178-0.797c-7.89-11.934-28.694-17.346-45.734,0.797H10.559
			z"/>
		<path fill="#E8EAEC" d="M50.839,26.877c40.014,8.554,36.981,45.268,27.749,61.697c-1.304-0.2-1.957,1.715-0.358,2.128
			c1.664,0.359,2.208-1.609,1.037-1.969c13.29-24.517,7.078-55.231-25.621-65.235c34.055,2.527,45.361,38.178,35.132,58.943
			c-10.15,20.606-31.846,30.196-53.542,17.745c18.676,7.77,39.124-5.28,41.77-31.127C79.639,43.958,60.325,29.458,50.839,26.877"/>
		<polygon fill="#E8EAEC" points="92.131,36.908 97.757,35.724 94.246,40.553 88.658,42.188 		"/>
		<path fill="#E8EAEC" d="M91.519,36.469c1.757-0.413,3.604-0.771,5.36-1.184c-4.896-1.89-9.923-3.525-15.484-4.497
			c-1.33,0.479-2.487,1.038-3.818,1.504C83.802,33.25,87.315,34.593,91.519,36.469"/>
		<path fill="#E8EAEC" d="M77.271,31.76L76.3,31.148l0.611-3.698l6.253-1.664l-2.022,4.484
			C81.143,30.271,77.471,31.893,77.271,31.76"/>
		<path fill="#E8EAEC" d="M76.874,26.931l6.371-1.715c-3.859-1.49-14.127-1.517-19.169-0.666
			C68.439,24.923,72.682,25.68,76.874,26.931"/>
		<path fill="#E8EAEC" d="M52.17,62.941c-2.022-1.37-4.231-2.713-6.253-4.085c-32.59,6.066-7.462,41.039,3.353,21.711
			C35.927,84.225,31.019,61.876,52.17,62.941"/>
		<polygon fill="#E8EAEC" points="55.283,63.248 54.046,57.354 45.971,51.993 46.583,58.499 		"/>
		<path fill="#E8EAEC" d="M52.568,67.996l9.127,2.554c9.684,55.738-72.979,16.921-25.143-23.612
			c2.886-0.173,4.789-0.133,7.303,0.306c-2.34,1.969-4.695,3.924-7.037,5.894c-4.245,1.809-12.532,5.826-13.542,19.183
			C21.001,102.423,69.011,99.948,52.568,67.996"/>
		<path fill="#E8EAEC" d="M50.8,54.547l3.246-3.259c-1.543-1.144-3.179-2.022-4.91-2.634l-4.31,2.728h1.145L50.8,54.547z"/>
		<path fill="#E8EAEC" d="M43.763,51.46c-1.756,0.187-3.512,0.439-5.268,1.065l5.973-5.188c1.356,0.172,2.7,0.519,4.043,1.051
			L43.763,51.46z"/>
		<path fill="#E8EAEC" d="M45.571,66.812c-7.409,5.161-0.492,14.793,3.299,13.408C45.691,78.172,44.135,73.064,45.571,66.812"/>
	</g>
</g>
</svg>
