<?xml version="1.0" encoding="utf-8"?>
<!-- Generator: Adobe Illustrator 16.0.0, SVG Export Plug-In . SVG Version: 6.00 Build 0)  -->
<!DOCTYPE svg PUBLIC "-//W3C//DTD SVG 1.1//EN" "http://www.w3.org/Graphics/SVG/1.1/DTD/svg11.dtd">
<svg version="1.1" id="Layer_1" xmlns="http://www.w3.org/2000/svg" xmlns:xlink="http://www.w3.org/1999/xlink" x="0px" y="0px"
	 width="241.324px" height="130.176px" viewBox="0 0 241.324 130.176" enable-background="new 0 0 241.324 130.176"
	 xml:space="preserve">
<path fill="#F04E23" d="M70.078,25.715c1.495,0,2.709-1.211,2.709-2.705c0-1.495-1.214-2.705-2.709-2.705s-2.708,1.21-2.708,2.705
	C67.37,24.504,68.583,25.715,70.078,25.715 M77.45,25.715c1.499,0,2.71-1.211,2.71-2.705c0-1.495-1.211-2.705-2.71-2.705
	c-1.494,0-2.706,1.21-2.706,2.705C74.744,24.504,75.956,25.715,77.45,25.715 M18.156,70.066l5.281-4.408l14.521,18.607h7.955
	L28.045,62.143l17.949-15.908h-7.948L18.156,63.788V46.234H11.73v38.031h6.425V70.066z M114.317,40.464
	c1.495,0,2.708-1.211,2.708-2.704c0-1.494-1.213-2.705-2.708-2.705c-1.496,0-2.707,1.211-2.707,2.705
	C111.61,39.253,112.822,40.464,114.317,40.464 M84.826,10.967c1.495,0,2.708-1.211,2.708-2.707c0-1.493-1.213-2.704-2.708-2.704
	c-1.497,0-2.709,1.211-2.709,2.704C82.117,9.756,83.329,10.967,84.826,10.967 M84.826,33.089c1.495,0,2.708-1.21,2.708-2.705
	c0-1.493-1.213-2.703-2.708-2.703c-1.497,0-2.709,1.21-2.709,2.703C82.117,31.879,83.329,33.089,84.826,33.089 M84.826,18.341
	c1.495,0,2.708-1.21,2.708-2.705c0-1.493-1.213-2.705-2.708-2.705c-1.497,0-2.709,1.212-2.709,2.705
	C82.117,17.131,83.329,18.341,84.826,18.341 M39.706,107.162c0,7.938-3.05,11.691-10.855,11.691c-7.82,0-10.87-3.753-10.87-11.691
	V86.68h-6.25v22.4c0,9.555,6.071,15.476,17.12,15.476c11.032,0,17.109-5.921,17.109-15.476V91.562h12.058v33.059h6.36V91.562h9.738
	v33.059h6.356V91.562h9.631V86.68H39.706V107.162z M84.826,25.715c1.495,0,2.708-1.211,2.708-2.705c0-1.495-1.213-2.705-2.708-2.705
	c-1.497,0-2.709,1.21-2.709,2.705C82.117,24.504,83.329,25.715,84.826,25.715 M69.395,76.275L56.499,46.234h-8.084v38.031h6.362v-27
	l11.815,27h5.401l11.759-26.974v26.974h6.365V46.234h-8.029L69.395,76.275z M99.57,20.305c-1.495,0-2.707,1.21-2.707,2.705
	c0,1.494,1.212,2.705,2.707,2.705c1.497,0,2.71-1.211,2.71-2.705C102.281,21.515,101.067,20.305,99.57,20.305 M109.653,37.76
	c0-1.494-1.213-2.705-2.711-2.705c-1.496,0-2.707,1.211-2.707,2.705c0,1.493,1.211,2.704,2.707,2.704
	C108.44,40.464,109.653,39.253,109.653,37.76 M99.57,35.055c-1.495,0-2.707,1.211-2.707,2.705c0,1.493,1.212,2.704,2.707,2.704
	c1.497,0,2.71-1.211,2.71-2.704C102.281,36.266,101.067,35.055,99.57,35.055 M99.57,27.681c-1.495,0-2.707,1.21-2.707,2.703
	c0,1.495,1.212,2.705,2.707,2.705c1.497,0,2.71-1.21,2.71-2.705C102.281,28.891,101.067,27.681,99.57,27.681 M99.57,42.429
	c-1.495,0-2.707,1.209-2.707,2.705c0,1.493,1.212,2.703,2.707,2.703c1.497,0,2.71-1.21,2.71-2.703
	C102.281,43.638,101.067,42.429,99.57,42.429 M92.198,35.055c-1.494,0-2.707,1.211-2.707,2.705c0,1.493,1.213,2.704,2.707,2.704
	c1.497,0,2.708-1.211,2.708-2.704C94.906,36.266,93.694,35.055,92.198,35.055 M92.198,20.305c-1.494,0-2.707,1.21-2.707,2.705
	c0,1.494,1.213,2.705,2.707,2.705c1.497,0,2.708-1.211,2.708-2.705C94.906,21.515,93.694,20.305,92.198,20.305 M99.57,49.803
	c-1.495,0-2.707,1.213-2.707,2.706c0,1.494,1.212,2.705,2.707,2.705c1.497,0,2.71-1.211,2.71-2.705
	C102.281,51.016,101.067,49.803,99.57,49.803 M84.826,40.464c1.495,0,2.708-1.211,2.708-2.704c0-1.494-1.213-2.705-2.708-2.705
	c-1.497,0-2.709,1.211-2.709,2.705C82.117,39.253,83.329,40.464,84.826,40.464 M153.205,94.781v5.812h1.405v-5.645
	c0-1.842-0.69-3.129-2.952-3.129c-1.23,0-2.186,0.486-2.783,1.552h-0.041v-1.356h-1.322v8.578h1.406v-4.847
	c0-1.549,0.832-2.689,2.547-2.689C152.539,93.057,153.205,93.739,153.205,94.781 M205.914,54.671h-1.892l-3.914,3.754v-7.023h-1.412
	v11.853h1.412v-3.256l1.326-1.232l2.941,4.488h1.786l-3.653-5.465L205.914,54.671z M154.399,118.218
	c-1.944,0-2.709-1.562-2.709-3.25c0-1.609,0.729-3.241,2.625-3.241c1.826,0,2.655,1.561,2.655,3.172
	C156.971,116.576,156.328,118.218,154.399,118.218 M154.517,110.484c-1.181,0-2.276,0.414-2.737,1.362h-0.041v-4.429h-1.406v11.844
	h1.406v-1.149h0.041c0.629,1.017,1.889,1.347,2.772,1.347c2.618,0,3.911-2.039,3.911-4.463
	C158.463,112.577,157.162,110.484,154.517,110.484 M200.293,81.285c-1.748,0-2.584-1.122-2.584-2.782c0-2.011,1.271-4.51,3.561-4.51
	c1.673,0,2.52,1.089,2.52,2.684C203.789,78.67,202.58,81.285,200.293,81.285 M201.45,73.104c-3.055,0-4.773,2.692-4.773,5.502
	c0,2.135,1.206,3.566,3.406,3.566c3.172,0,4.751-2.822,4.751-5.715C204.834,74.353,203.438,73.104,201.45,73.104 M166.813,115.528
	c0,1.54-0.828,2.689-2.54,2.689c-1.078,0-1.744-0.681-1.744-1.727v-5.81h-1.406v5.645c0,1.838,0.699,3.133,2.955,3.133
	c1.224,0,2.181-0.49,2.779-1.558h0.041v1.36h1.325v-8.58h-1.41V115.528z M191.548,62.105c-1.865,0-2.425-1.729-2.425-3.273
	c0-1.636,0.732-3.115,2.533-3.115c1.777,0,2.437,1.558,2.437,3.07C194.093,60.393,193.401,62.105,191.548,62.105 M195.494,62.519
	v-7.848h-1.33v1.226h-0.015c-0.517-0.941-1.474-1.432-2.558-1.432c-2.969,0-3.969,2.509-3.969,4.537
	c0,2.339,1.276,4.346,3.836,4.346c1.083,0,2.205-0.511,2.671-1.561h0.034v0.564c0,1.926-0.73,3.254-2.572,3.254
	c-0.931,0-2.156-0.36-2.224-1.393h-1.41c0.075,1.876,1.945,2.523,3.547,2.523C194.217,66.736,195.494,65.309,195.494,62.519
	 M144.209,110.484c-1.229,0-2.192,0.498-2.791,1.555h-0.033v-1.357h-1.326v8.58h1.41v-4.847c0-1.541,0.836-2.688,2.537-2.688
	c1.08,0,1.748,0.686,1.748,1.726v5.81h1.412v-5.637C147.166,111.774,146.463,110.484,144.209,110.484 M134.715,97.452h-1.445
	c-0.186,1.299-0.992,2.089-2.355,2.089c-1.795,0-2.504-1.552-2.504-3.135c0-1.736,0.629-3.35,2.67-3.35
	c1.164,0,1.912,0.631,2.125,1.709h1.467c-0.213-2.037-1.768-2.946-3.707-2.946c-2.723,0-4.051,2.018-4.051,4.587
	c0,2.563,1.396,4.384,4.016,4.384C133.084,100.79,134.396,99.541,134.715,97.452 M209.102,72.114l-0.267,1.243h-1.476l-0.2,0.881
	h1.493l-1.697,7.684h1.044l1.699-7.684h1.675l0.199-0.881h-1.689l0.247-1.197c0.199-0.843,0.531-1.207,1.512-1.207
	c0.213,0,0.433,0.063,0.645,0.096l0.185-0.859c-0.35-0.104-0.718-0.117-1.083-0.117C209.969,70.072,209.364,70.848,209.102,72.114
	 M142.979,94.781v5.812h1.414v-5.645c0-1.842-0.704-3.129-2.958-3.129c-1.027,0-2.236,0.424-2.701,1.454h-0.037v-4.534h-1.402
	v11.854h1.402v-4.847c0-1.549,0.834-2.689,2.541-2.689C142.313,93.057,142.979,93.739,142.979,94.781 M133.232,118.218
	c-1.467,0-2.667-1.165-2.667-3.234c0-2.098,1.2-3.257,2.667-3.257c1.482,0,2.678,1.159,2.678,3.257
	C135.91,117.053,134.715,118.218,133.232,118.218 M133.232,110.484c-2.717,0-4.16,1.969-4.16,4.499c0,2.508,1.443,4.476,4.16,4.476
	c2.725,0,4.168-1.968,4.168-4.476C137.4,112.453,135.957,110.484,133.232,110.484 M176.637,99.541c-1.475,0-2.676-1.156-2.676-3.227
	c0-2.098,1.201-3.258,2.676-3.258c1.476,0,2.669,1.16,2.669,3.258C179.306,98.385,178.112,99.541,176.637,99.541 M176.637,91.819
	c-2.717,0-4.165,1.964-4.165,4.495c0,2.5,1.448,4.476,4.165,4.476c2.724,0,4.166-1.976,4.166-4.476
	C180.803,93.783,179.36,91.819,176.637,91.819 M171.045,62.206c-1.476,0-2.672-1.165-2.672-3.235c0-2.093,1.196-3.254,2.672-3.254
	c1.479,0,2.675,1.161,2.675,3.254C173.72,61.041,172.523,62.206,171.045,62.206 M175.213,58.971c0-2.522-1.444-4.506-4.168-4.506
	c-2.73,0-4.164,1.983-4.164,4.506c0,2.504,1.434,4.475,4.164,4.475C173.769,63.445,175.213,61.475,175.213,58.971 M123.465,110.484
	c-1.034,0-2.238,0.427-2.709,1.459h-0.031v-4.525h-1.409v11.844h1.409v-4.847c0-1.541,0.834-2.688,2.539-2.688
	c1.078,0,1.748,0.686,1.748,1.726v5.81h1.4v-5.637C126.412,111.774,125.72,110.484,123.465,110.484 M122.346,54.671h-1.41v8.583
	h1.41V54.671z M186.909,99.439c-1.856,0-2.417-1.709-2.417-3.268c0-1.638,0.728-3.115,2.537-3.115c1.771,0,2.436,1.563,2.436,3.071
	C189.465,97.736,188.77,99.439,186.909,99.439 M189.526,93.245h-0.016c-0.51-0.952-1.478-1.426-2.545-1.426
	c-2.974,0-3.972,2.504-3.972,4.523c0,2.339,1.281,4.348,3.828,4.348c1.085,0,2.209-0.514,2.678-1.553h0.026v0.558
	c0,1.931-0.727,3.254-2.561,3.254c-0.933,0-2.165-0.367-2.232-1.397h-1.403c0.08,1.883,1.936,2.523,3.552,2.523
	c2.701,0,3.98-1.429,3.98-4.216v-7.845h-1.336V93.245z M197.176,99.031h-0.023l-2.513-7.017h-1.588l3.399,8.524l-0.577,1.462
	c-0.269,0.497-0.581,0.785-1.163,0.785c-0.281,0-0.562-0.115-0.83-0.204v1.303c0.314,0.112,0.646,0.149,0.978,0.149
	c1.266,0,1.84-0.627,2.495-2.3l3.729-9.72h-1.493L197.176,99.031z M183.324,84.109c-0.279,0-0.57-0.117-0.818-0.195v1.293
	c0.308,0.119,0.636,0.149,0.968,0.149c1.26,0,1.846-0.607,2.485-2.291l3.743-9.726h-1.497l-2.402,7.024h-0.034l-2.504-7.024h-1.597
	l3.4,8.532l-0.576,1.456C184.224,83.829,183.912,84.109,183.324,84.109 M173.197,70.072h-1.422V71.8h1.422V70.072z M177.949,109.141
	h1.411v-1.723h-1.411V109.141z M171.775,81.922h1.422V73.34h-1.422V81.922z M172.654,112.493h-0.037v-1.812h-1.32v8.58h1.404v-3.816
	c0-2.17,0.836-3.471,3.107-3.471v-1.49C174.276,110.43,173.34,111.115,172.654,112.493 M177.949,119.262h1.411v-8.58h-1.411V119.262
	z M168.341,100.593h1.411V88.739h-1.411V100.593z M232.987,58.303c-1.314-0.306-2.817-0.479-2.817-1.492
	c0-0.866,0.984-1.094,1.837-1.094c0.927,0,1.888,0.345,2,1.437h1.402c-0.111-2.089-1.632-2.688-3.517-2.688
	c-1.498,0-3.212,0.717-3.212,2.443c0,1.645,1.415,2.111,2.808,2.424c1.419,0.318,2.808,0.494,2.808,1.597
	c0,1.078-1.195,1.277-2.081,1.277c-1.156,0-2.249-0.399-2.301-1.662h-1.416c0.088,2.126,1.707,2.901,3.639,2.901
	c1.742,0,3.652-0.667,3.652-2.706C235.789,59.078,234.396,58.618,232.987,58.303 M133.484,70.072h-1.414V71.8h1.414V70.072z
	 M120.959,93.057c1.387,0,2.402,1.078,2.465,2.424h-4.926C118.602,94.169,119.48,93.057,120.959,93.057 M124.783,97.868H123.4
	c-0.256,1.113-1.064,1.673-2.227,1.673c-1.874,0-2.727-1.323-2.676-2.814h6.43c0.084-2.073-0.85-4.907-3.889-4.907
	c-2.344,0-4.035,1.881-4.035,4.463c0.078,2.616,1.373,4.508,4.119,4.508C123.045,100.79,124.41,99.758,124.783,97.868
	 M139.858,80.495h-0.026l-2.414-7.155h-1.578l3.191,8.582h1.504l3.146-8.582h-1.479L139.858,80.495z M139.324,55.717
	c1.785,0,2.447,1.558,2.447,3.07c0,1.605-0.699,3.318-2.555,3.318s-2.426-1.729-2.426-3.273
	C136.791,57.196,137.519,55.717,139.324,55.717 M139.123,63.348c1.084,0,2.211-0.511,2.679-1.561h0.034v0.564
	c0,1.926-0.727,3.254-2.571,3.254c-0.931,0-2.155-0.36-2.224-1.393h-1.416c0.086,1.876,1.942,2.523,3.56,2.523
	c2.703,0,3.979-1.428,3.979-4.218v-7.848h-1.328v1.226h-0.014c-0.52-0.941-1.479-1.432-2.558-1.432c-2.965,0-3.97,2.509-3.97,4.537
	C135.295,61.341,136.576,63.348,139.123,63.348 M132.072,81.922h1.413V73.34h-1.413V81.922z M118.479,77.638v-7.565h-1.575v7.565
	c0,2.093-1.09,3.236-3.087,3.236c-2.085,0-3.28-1.144-3.28-3.236v-7.565h-1.577v7.565c0,3.161,1.81,4.569,4.857,4.569
	C116.771,82.207,118.479,80.627,118.479,77.638 M126.947,58.402c0-1.54,0.826-2.686,2.536-2.686c1.082,0,1.746,0.68,1.746,1.727
	v5.811h1.419v-5.646c0-1.84-0.707-3.144-2.959-3.144c-1.23,0-2.191,0.506-2.789,1.566h-0.033v-1.36h-1.33v8.583h1.41V58.402z
	 M109.027,51.401v11.853h1.568V59.1l1.982-1.84l4.28,5.994h1.996l-5.202-7.081l4.996-4.771h-2.039l-6.013,5.906v-5.906H109.027z
	 M121.777,73.34v8.582h1.405v-4.844c0-1.545,0.825-2.694,2.537-2.694c1.075,0,1.743,0.683,1.743,1.73v5.808h1.4v-5.645
	c0-1.847-0.688-3.137-2.951-3.137c-1.229,0-2.184,0.498-2.779,1.562h-0.038V73.34H121.777z M113.292,100.593v-10.52h3.953v-1.334
	h-9.486v1.334h3.96v10.52H113.292z M122.346,51.401h-1.41v1.723h1.41V51.401z M165.352,74.384c0.926,0,1.898,0.351,1.991,1.446
	h1.415c-0.12-2.093-1.631-2.689-3.521-2.689c-1.496,0-3.203,0.72-3.203,2.438c0,1.645,1.405,2.108,2.801,2.423
	c1.416,0.321,2.811,0.501,2.811,1.599c0,1.078-1.2,1.273-2.076,1.273c-1.16,0-2.257-0.4-2.306-1.661h-1.411
	c0.085,2.133,1.706,2.909,3.63,2.909c1.753,0,3.653-0.666,3.653-2.707c0-1.662-1.395-2.127-2.801-2.441
	c-1.316-0.31-2.81-0.481-2.81-1.49C163.524,74.618,164.51,74.384,165.352,74.384 M179.283,58.402c0-1.54,0.823-2.686,2.537-2.686
	c1.074,0,1.742,0.68,1.742,1.727v5.811h1.403v-5.646c0-1.84-0.69-3.144-2.953-3.144c-1.229,0-2.19,0.506-2.781,1.566h-0.036v-1.36
	h-1.337v8.583h1.425V58.402z M176.92,80.042c0,1.579,0.58,1.88,2.043,1.88h1.08v-1.243h-0.653c-0.872,0-1.06-0.118-1.06-0.764v-5.33
	h1.713V73.34h-1.713v-2.573h-1.41v2.573h-1.457v1.245h1.457V80.042z M107.758,108.748h3.96v10.514h1.574v-10.514h3.953v-1.33h-9.486
	V108.748z M213.911,59.516c0,1.545-0.826,2.69-2.538,2.69c-1.076,0-1.74-0.681-1.74-1.733v-5.802h-1.412v5.635
	c0,1.849,0.696,3.14,2.952,3.14c1.23,0,2.191-0.495,2.79-1.561h0.033v1.369h1.336v-8.583h-1.421V59.516z M161.436,93.057
	c1.479,0,2.68,1.16,2.68,3.258c0,2.07-1.201,3.227-2.68,3.227c-1.477,0-2.671-1.156-2.671-3.227
	C158.765,94.217,159.959,93.057,161.436,93.057 M161.436,100.79c2.721,0,4.168-1.976,4.168-4.476c0-2.531-1.447-4.495-4.168-4.495
	c-2.723,0-4.163,1.964-4.163,4.495C157.272,98.814,158.713,100.79,161.436,100.79 M153.647,53.392h0.036l3.699,9.862h1.35
	l3.703-9.862h0.03v9.862h1.489V51.401h-2.15l-3.751,9.958l-3.738-9.958h-2.155v11.853h1.487V53.392z M224.984,53.237h0.984
	c0,0.768-0.223,1.61-0.969,1.61v0.837c1.273,0,1.83-1.128,1.83-2.447v-1.836h-1.846V53.237z M155.824,73.34v8.582h1.411v-3.82
	c0-2.171,0.829-3.465,3.104-3.465v-1.496c-1.527-0.046-2.473,0.631-3.156,2.009h-0.035v-1.81H155.824z M149.463,74.384
	c1.385,0,2.398,1.084,2.466,2.423h-4.931C147.099,75.499,147.974,74.384,149.463,74.384 M149.619,82.122
	c1.92,0,3.289-1.032,3.674-2.922h-1.396c-0.252,1.11-1.064,1.674-2.227,1.674c-1.879,0-2.723-1.323-2.672-2.822h6.426
	c0.08-2.071-0.846-4.911-3.889-4.911c-2.338,0-4.033,1.892-4.033,4.463C145.588,80.23,146.877,82.122,149.619,82.122
	 M220.398,52.097h-1.413v2.574h-1.451v1.239h1.451v5.465c0,1.575,0.588,1.879,2.046,1.879h1.081v-1.247h-0.651
	c-0.879,0-1.063-0.122-1.063-0.771V55.91h1.714v-1.239h-1.714V52.097z"/>
</svg>
