<?xml version="1.0" encoding="utf-8"?>
<!-- Generator: Adobe Illustrator 16.0.0, SVG Export Plug-In . SVG Version: 6.00 Build 0)  -->
<!DOCTYPE svg PUBLIC "-//W3C//DTD SVG 1.1//EN" "http://www.w3.org/Graphics/SVG/1.1/DTD/svg11.dtd">
<svg version="1.1" id="Layer_1" xmlns="http://www.w3.org/2000/svg" xmlns:xlink="http://www.w3.org/1999/xlink" x="0px" y="0px"
	 width="505px" height="252px" viewBox="0 0 505 252" enable-background="new 0 0 505 252" xml:space="preserve">
<path fill="#F04E23" d="M63.966,211.832c0,16.201-6.225,23.857-22.152,23.857c-15.958,0-22.182-7.656-22.182-23.857v-41.797H6.879
	v45.71c0,19.498,12.389,31.578,34.936,31.578c22.513,0,34.914-12.08,34.914-31.578v-35.75h24.605v67.46h12.979v-67.46h19.872v67.46
	h12.969v-67.46h19.653v-9.96H63.966V211.832z M124.549,148.802L98.234,87.499H81.738v77.609h12.981V110.01l24.111,55.099h11.022
	l23.993-55.044v55.044h12.989V87.499H150.45L124.549,148.802z M125.942,45.625c3.053,0,5.528-2.471,5.528-5.517
	c0-3.053-2.476-5.52-5.528-5.52c-3.049,0-5.524,2.467-5.524,5.52C120.418,43.154,122.894,45.625,125.942,45.625 M171.083,64.688
	c-3.049,0-5.523,2.471-5.523,5.518c0,3.049,2.475,5.52,5.523,5.52c3.053,0,5.524-2.471,5.524-5.52
	C176.607,67.158,174.136,64.688,171.083,64.688 M19.989,136.131l10.777-8.995l29.633,37.973h16.233l-36.46-45.146L76.8,87.499
	H60.579l-40.589,35.822V87.499H6.879v77.609h13.11V136.131z M186.127,64.688c-3.051,0-5.522,2.471-5.522,5.518
	c0,3.049,2.472,5.52,5.522,5.52c3.055,0,5.53-2.471,5.53-5.52C191.657,67.158,189.182,64.688,186.127,64.688 M186.127,34.588
	c-3.051,0-5.522,2.467-5.522,5.52c0,3.046,2.472,5.517,5.522,5.517c3.055,0,5.53-2.471,5.53-5.517
	C191.657,37.056,189.182,34.588,186.127,34.588 M171.083,34.588c-3.049,0-5.523,2.467-5.523,5.52c0,3.046,2.475,5.517,5.523,5.517
	c3.053,0,5.524-2.471,5.524-5.517C176.607,37.056,174.136,34.588,171.083,34.588 M201.17,64.688c-3.053,0-5.523,2.471-5.523,5.518
	c0,3.049,2.471,5.52,5.523,5.52c3.058,0,5.532-2.471,5.532-5.52C206.702,67.158,204.228,64.688,201.17,64.688 M186.127,79.735
	c-3.051,0-5.522,2.467-5.522,5.517c0,3.049,2.472,5.517,5.522,5.517c3.055,0,5.53-2.468,5.53-5.517
	C191.657,82.202,189.182,79.735,186.127,79.735 M140.988,45.625c3.057,0,5.527-2.471,5.527-5.517c0-3.053-2.471-5.52-5.527-5.52
	c-3.049,0-5.524,2.467-5.524,5.52C135.464,43.154,137.939,45.625,140.988,45.625 M186.127,49.64c-3.051,0-5.522,2.467-5.522,5.515
	c0,3.051,2.472,5.518,5.522,5.518c3.055,0,5.53-2.467,5.53-5.518C191.657,52.107,189.182,49.64,186.127,49.64 M186.127,94.781
	c-3.051,0-5.522,2.477-5.522,5.522c0,3.047,2.472,5.521,5.522,5.521c3.055,0,5.53-2.474,5.53-5.521
	C191.657,97.258,189.182,94.781,186.127,94.781 M156.037,15.532c3.052,0,5.528-2.473,5.528-5.523c0-3.047-2.477-5.52-5.528-5.52
	c-3.053,0-5.527,2.473-5.527,5.52C150.51,13.059,152.984,15.532,156.037,15.532 M156.037,75.725c3.052,0,5.528-2.471,5.528-5.52
	c0-3.047-2.477-5.518-5.528-5.518c-3.053,0-5.527,2.471-5.527,5.518C150.51,73.254,152.984,75.725,156.037,75.725 M216.22,75.725
	c3.051,0,5.526-2.471,5.526-5.52c0-3.047-2.476-5.518-5.526-5.518c-3.053,0-5.523,2.471-5.523,5.518
	C210.696,73.254,213.167,75.725,216.22,75.725 M156.037,60.673c3.052,0,5.528-2.467,5.528-5.518c0-3.048-2.477-5.515-5.528-5.515
	c-3.053,0-5.527,2.467-5.527,5.515C150.51,58.206,152.984,60.673,156.037,60.673 M156.037,30.58c3.052,0,5.528-2.469,5.528-5.519
	c0-3.049-2.477-5.52-5.528-5.52c-3.053,0-5.527,2.471-5.527,5.52C150.51,28.111,152.984,30.58,156.037,30.58 M156.037,45.625
	c3.052,0,5.528-2.471,5.528-5.517c0-3.053-2.477-5.52-5.528-5.52c-3.053,0-5.527,2.467-5.527,5.52
	C150.51,43.154,152.984,45.625,156.037,45.625 M272.122,137.53c-1.005-0.395-2.168-0.662-3.508-0.801
	c-0.514-0.057-0.889-0.088-1.1-0.088h-0.783c-0.699,0-1.399,0.031-2.11,0.088c-0.228,0.008-0.506,0.039-0.845,0.087
	c0.197-0.634,0.669-1.215,1.419-1.737c0.801-0.566,1.672-0.845,2.599-0.845c0.167,0,0.307,0.012,0.395,0.027
	c1.494,0.176,2.682,0.698,3.57,1.559c0.563,0.534,1.063,1.3,1.483,2.275C272.821,137.845,272.448,137.658,272.122,137.53
	 M272.712,134.445c-1.09-0.988-2.445-1.594-4.098-1.837c-0.159-0.028-0.426-0.044-0.761-0.044c-1.599,0-3.041,0.59-4.349,1.777
	c-1.312,1.18-2.12,2.583-2.409,4.201c0.592-0.084,1.078-0.14,1.473-0.168c1.164-0.1,2.332-0.151,3.529-0.151
	c0.952,0,1.873,0.052,2.788,0.136c0.917,0.084,1.979,0.271,3.179,0.562c0.807,0.203,1.632,0.435,2.44,0.702
	c0.339,0.107,0.666,0.227,0.993,0.338c-0.266-1.088-0.522-1.937-0.779-2.559C274.212,136.191,273.545,135.207,272.712,134.445
	 M320.236,145.095c0.734-0.53,1.63-0.789,2.676-0.789c1.12,0,2.022,0.299,2.696,0.929c0.678,0.613,1.013,1.486,1.013,2.61v12.677
	h2.262v-12.721c0-1.602-0.572-2.886-1.73-3.834c-1.09-0.9-2.505-1.359-4.24-1.359c-1.557,0-2.836,0.407-3.844,1.208
	c-0.762,0.605-1.455,1.507-2.077,2.727l1.603,0.737C318.948,146.358,319.494,145.637,320.236,145.095 M303.506,144.62
	c0.262-0.295,0.626-0.454,1.091-0.454c0.472,0,0.829,0.159,1.096,0.475c0.267,0.307,0.404,0.661,0.404,1.072
	c0,0.431-0.138,0.781-0.404,1.08c-0.267,0.291-0.624,0.442-1.096,0.442c-0.465,0-0.829-0.151-1.091-0.45
	c-0.261-0.308-0.398-0.662-0.398-1.072C303.107,145.286,303.245,144.928,303.506,144.62 M311.36,157.138
	c0,0.642-0.103,1.056-0.287,1.259c-0.191,0.208-0.626,0.312-1.283,0.312h-7.003v-2.516c0-0.937,0.271-1.678,0.831-2.231
	c0.552-0.55,1.396-0.829,2.545-0.829c0.018,0,0.044-0.111,0.048-0.311c0-0.21,0.008-0.413,0.008-0.624s-0.008-0.423-0.024-0.622
	c-0.008-0.207-0.021-0.307-0.031-0.307c-0.947,0-1.77-0.251-2.476-0.757c-0.889-0.634-1.335-1.57-1.335-2.794
	c0.167,0.243,0.335,0.414,0.49,0.51c0.462,0.327,1.044,0.486,1.754,0.486c0.96,0,1.718-0.311,2.271-0.925
	c0.519-0.57,0.762-1.26,0.762-2.076c0-0.841-0.243-1.555-0.762-2.137c-0.554-0.649-1.312-0.969-2.271-0.969
	c-1.283,0-2.363,0.551-3.232,1.631c-0.802,0.996-1.204,2.164-1.204,3.507c0,1.028,0.268,1.949,0.81,2.758
	c0.546,0.81,1.365,1.392,2.459,1.766c-0.655,0.18-1.144,0.383-1.449,0.604c-0.962,0.705-1.442,1.813-1.442,3.319v4.329h9.253
	c1.514,0,2.53-0.204,3.019-0.626c0.496-0.415,0.743-1.327,0.743-2.758v-14.167h-2.191V157.138z M420.313,184.789
	c-0.306,0.319-0.726,0.479-1.284,0.479c-0.558,0-0.996-0.151-1.283-0.45c-0.303-0.307-0.444-0.686-0.444-1.132
	c0-0.423,0.159-0.789,0.456-1.112c0.293-0.314,0.731-0.474,1.271-0.474c0.559,0,0.997,0.167,1.315,0.506
	c0.279,0.295,0.425,0.657,0.425,1.08C420.769,184.104,420.617,184.475,420.313,184.789 M429.977,194.857
	c0,0.661-0.085,1.088-0.244,1.275c-0.162,0.195-0.584,0.282-1.273,0.282h-6.327v-12.754c0-0.904-0.273-1.662-0.842-2.279
	c-0.556-0.622-1.314-0.925-2.262-0.925c-1.022,0-1.837,0.327-2.442,0.984c-0.543,0.594-0.804,1.315-0.804,2.176
	c0,0.857,0.277,1.603,0.851,2.221c0.572,0.621,1.373,0.924,2.396,0.924c0.186,0,0.355-0.008,0.505-0.031
	c0.146-0.036,0.282-0.06,0.406-0.096v9.78h-2.124v1.817h10.644c1.558,0,2.576-0.203,3.066-0.617
	c0.492-0.419,0.728-1.331,0.728-2.758V180.68h-2.276V194.857z M272.737,158.852c-0.289,0.311-0.673,0.462-1.191,0.462
	c-0.504,0-0.904-0.159-1.18-0.479c-0.281-0.331-0.431-0.705-0.431-1.124c0-0.446,0.149-0.833,0.431-1.14
	c0.275-0.311,0.676-0.462,1.18-0.462c0.519,0,0.938,0.171,1.226,0.506c0.251,0.295,0.387,0.657,0.387,1.096
	C273.158,158.161,273.013,158.548,272.737,158.852 M267.896,142.607c-1.519,0-2.928,0.391-4.203,1.164
	c-1.092,0.662-1.945,1.482-2.543,2.472l1.3,1.036c0.52-0.794,1.219-1.447,2.104-1.961c1.049-0.626,2.165-0.94,3.343-0.94
	c1.466,0,2.604,0.354,3.419,1.04c0.812,0.693,1.226,1.701,1.226,3.045v6.163c-0.144-0.027-0.293-0.052-0.452-0.087
	c-0.157-0.024-0.349-0.044-0.542-0.044c-1.021,0-1.839,0.33-2.429,0.973c-0.53,0.581-0.802,1.299-0.802,2.16
	c0,0.876,0.271,1.602,0.829,2.199c0.614,0.658,1.447,0.989,2.487,0.989c1.05,0,1.863-0.355,2.435-1.072
	c0.438-0.582,0.674-1.292,0.674-2.116v-9.165c0-1.829-0.64-3.269-1.887-4.305C271.588,143.122,269.936,142.607,267.896,142.607
	 M283.126,147.084c-0.307,0.311-0.729,0.474-1.285,0.474c-0.561,0-0.994-0.151-1.285-0.454c-0.299-0.307-0.438-0.674-0.438-1.132
	c0-0.419,0.14-0.793,0.444-1.1c0.305-0.323,0.731-0.482,1.279-0.482c0.556,0,0.99,0.167,1.321,0.502
	c0.271,0.299,0.418,0.661,0.418,1.08C283.58,146.395,283.429,146.765,283.126,147.084 M295.555,160.525v-13.581
	c0-1.072-0.255-1.965-0.755-2.702c-0.598-0.841-1.431-1.271-2.499-1.271c-1.132,0-2.244,0.613-3.34,1.821
	c-0.829,0.921-1.652,2.184-2.471,3.822c-0.315,0.63-0.819,1.813-1.543,3.523v-6.182c0-0.901-0.291-1.662-0.845-2.284
	c-0.566-0.617-1.317-0.929-2.262-0.929c-1.024,0-1.836,0.354-2.443,1.057c-0.542,0.621-0.807,1.375-0.807,2.26
	c0,0.833,0.247,1.542,0.757,2.132c0.486,0.59,1.195,0.885,2.091,0.885c0.167,0,0.301,0,0.402-0.016l0.915-0.128v11.593h2.191
	c0-1.782,0.452-3.978,1.348-6.564c0.837-2.378,1.819-4.49,2.967-6.327c1.158-1.838,2.11-2.758,2.868-2.758
	c0.542,0,0.885,0.263,1.056,0.785c0.088,0.255,0.126,0.686,0.126,1.283v13.581H295.555z M432.571,147.558
	c-0.554,0-0.996-0.151-1.281-0.454c-0.301-0.307-0.458-0.674-0.458-1.132c0-0.419,0.157-0.793,0.469-1.1
	c0.292-0.323,0.721-0.482,1.271-0.482c0.549,0,0.987,0.167,1.315,0.502c0.283,0.299,0.421,0.661,0.421,1.08
	c0,0.423-0.151,0.793-0.452,1.112C433.546,147.395,433.12,147.558,432.571,147.558 M444.684,154.336
	c0.775,0.104,1.288,0.247,1.553,0.426c0.496,0.351,0.737,1.053,0.737,2.089c0,0.697-0.201,1.268-0.607,1.737
	c-0.333,0.387-0.708,0.59-1.095,0.59c-0.402,0-0.588-0.203-0.588-0.59V154.336z M435.679,160.525
	c0.807-1.574,1.819-2.897,3.041-3.978s2.521-1.723,3.888-1.953v4.372c0,0.522,0.229,0.937,0.691,1.239
	c0.454,0.315,1.013,0.467,1.672,0.467c0.961,0,1.781-0.295,2.479-0.885c0.783-0.678,1.178-1.627,1.178-2.854
	c0-1.466-0.395-2.566-1.178-3.296c-0.668-0.598-1.555-0.902-2.65-0.902v-9.765h-2.192v9.91c-1.13,0.167-2.192,0.514-3.188,1.04
	c-1.433,0.737-2.679,1.817-3.74,3.229v-11.193c0-0.901-0.283-1.662-0.85-2.284c-0.554-0.617-1.314-0.929-2.258-0.929
	c-1.028,0-1.841,0.327-2.444,0.997c-0.536,0.585-0.81,1.314-0.81,2.176c0,0.856,0.287,1.59,0.859,2.216
	c0.573,0.618,1.366,0.929,2.395,0.929c0.168,0,0.337-0.02,0.49-0.044c0.151-0.023,0.293-0.06,0.421-0.084v11.593H435.679z
	 M279.888,188.854c0-0.438,0.142-0.817,0.438-1.132c0.285-0.318,0.691-0.479,1.201-0.479c0.526,0,0.941,0.172,1.248,0.507
	c0.275,0.295,0.398,0.665,0.398,1.104c0,0.423-0.134,0.793-0.431,1.104c-0.287,0.318-0.689,0.478-1.216,0.478
	c-0.51,0-0.916-0.159-1.201-0.478C280.029,189.647,279.888,189.277,279.888,188.854 M289.308,181.824
	c-1.262-1.005-2.876-1.503-4.882-1.503c-1.65,0-3.173,0.407-4.556,1.22c-1.112,0.649-1.934,1.407-2.466,2.279l1.399,1.041
	c0.594-0.846,1.327-1.507,2.196-1.985c0.962-0.521,2.059-0.785,3.306-0.785c1.399,0,2.547,0.347,3.42,1.049
	c0.889,0.697,1.319,1.71,1.319,3.024v8.685c0,0.618-0.1,1.04-0.305,1.248c-0.218,0.211-0.656,0.311-1.334,0.311h-5.243
	c-0.715,0-1.163-0.088-1.331-0.283c-0.169-0.187-0.257-0.605-0.257-1.275v-3.104c0.12,0.052,0.215,0.096,0.279,0.107
	c0.229,0.072,0.464,0.107,0.719,0.107c0.991,0,1.798-0.338,2.396-0.996c0.515-0.574,0.773-1.291,0.773-2.148
	c0-0.853-0.267-1.578-0.807-2.18c-0.59-0.666-1.371-0.992-2.362-0.992c-1.157,0-2.024,0.414-2.601,1.247
	c-0.402,0.59-0.604,1.239-0.604,1.965v5.994c0,1.436,0.235,2.36,0.712,2.767c0.483,0.414,1.515,0.617,3.082,0.617h5.371
	c1.544,0,2.563-0.211,3.045-0.625c0.49-0.419,0.733-1.332,0.733-2.759v-8.685C291.313,184.335,290.646,182.885,289.308,181.824
	 M430.601,203.274c-0.229,0.239-0.544,0.354-0.931,0.354c-0.414,0-0.721-0.127-0.944-0.37c-0.219-0.247-0.325-0.534-0.325-0.854
	c0-0.335,0.106-0.634,0.325-0.876c0.224-0.244,0.53-0.371,0.944-0.371c0.404,0,0.718,0.127,0.938,0.371
	c0.222,0.242,0.329,0.541,0.329,0.876C430.938,202.744,430.818,203.031,430.601,203.274 M429.67,199.91
	c-0.841,0-1.496,0.26-1.973,0.781c-0.404,0.451-0.604,1.033-0.604,1.73c0,0.693,0.217,1.283,0.638,1.789
	c0.431,0.498,1.021,0.75,1.771,0.75c0.05,0,0.167-0.017,0.354-0.049c0.186-0.043,0.337-0.071,0.465-0.075v3.635h1.775v-6.09
	c0-0.777-0.231-1.379-0.708-1.817C430.938,200.13,430.361,199.91,429.67,199.91 M347.518,194.291
	c0.297-0.318,0.693-0.479,1.199-0.479c0.522,0,0.925,0.16,1.208,0.486c0.274,0.323,0.426,0.705,0.426,1.145
	c0,0.45-0.151,0.832-0.426,1.151c-0.283,0.314-0.686,0.475-1.208,0.475s-0.921-0.16-1.199-0.475
	c-0.289-0.319-0.419-0.701-0.419-1.151C347.099,194.992,347.229,194.605,347.518,194.291 M356.103,181.824
	c-1.248-1.005-2.882-1.503-4.889-1.503c-1.64,0-3.156,0.407-4.573,1.22c-1.124,0.658-1.939,1.427-2.461,2.279l1.412,1.041
	c0.597-0.846,1.317-1.507,2.196-1.985c0.961-0.521,2.059-0.785,3.288-0.785c1.539,0,2.734,0.335,3.569,1.021
	c0.835,0.689,1.255,1.706,1.255,3.053v5.708c-0.42-1.901-1.316-3.644-2.68-5.218c-1.148-1.327-2.38-1.984-3.73-1.984
	c-0.184,0-0.335,0-0.438,0.02c-1.352,0.14-2.344,0.674-2.978,1.61c-0.586,0.841-0.869,2.037-0.869,3.583v5.408
	c0,0.678,0.312,1.367,0.939,2.057c0.715,0.781,1.576,1.18,2.572,1.18c0.986,0,1.762-0.307,2.334-0.904
	c0.571-0.598,0.853-1.355,0.853-2.292c0-0.809-0.281-1.526-0.845-2.124c-0.605-0.666-1.381-0.992-2.342-0.992
	c-0.362,0-0.718,0.056-1.054,0.163c-0.103,0.028-0.214,0.075-0.337,0.147v-3.989c0-0.785,0.207-1.344,0.63-1.646
	c0.314-0.231,0.793-0.339,1.435-0.339c0.058-0.016,0.142-0.023,0.251-0.023c1.231,0,2.541,1.314,3.93,3.945
	c1.147,2.176,1.941,4.293,2.371,6.361c0.009,0.115,0.026,0.235,0.026,0.37v0.773c0,0.128-0.018,0.211-0.026,0.255h2.15v-12.068
	C358.093,184.327,357.438,182.876,356.103,181.824 M367.497,180.321c-1.545,0-2.826,0.395-3.838,1.196
	c-0.758,0.609-1.449,1.518-2.077,2.726l1.606,0.737c0.351-0.904,0.905-1.634,1.634-2.172c0.744-0.53,1.635-0.801,2.675-0.801
	c1.128,0,2.03,0.311,2.704,0.924c0.674,0.63,1.015,1.495,1.015,2.623v12.678h2.258v-12.718c0-1.61-0.572-2.886-1.736-3.846
	C370.657,180.768,369.24,180.321,367.497,180.321 M375.08,158.852c-0.291,0.311-0.694,0.462-1.216,0.462
	c-0.524,0-0.919-0.159-1.2-0.471c-0.285-0.322-0.422-0.701-0.422-1.132c0-0.454,0.137-0.833,0.422-1.144
	c0.281-0.307,0.676-0.467,1.2-0.467c0.521,0,0.925,0.168,1.216,0.49c0.267,0.319,0.422,0.694,0.422,1.12
	C375.502,158.161,375.347,158.536,375.08,158.852 M373.912,154.495c-0.218,0-0.465,0.031-0.739,0.088
	c-0.068,0.016-0.151,0.031-0.254,0.043v-11.663h-2.218v14.748c0,0.984,0.312,1.766,0.927,2.32c0.58,0.525,1.323,0.785,2.236,0.785
	c1.018,0,1.813-0.323,2.394-0.973c0.521-0.59,0.774-1.315,0.774-2.172c0-0.865-0.253-1.587-0.774-2.177
	C375.678,154.825,374.891,154.495,373.912,154.495 M405.573,148.873c0.275-0.311,0.674-0.462,1.178-0.462
	c0.522,0,0.921,0.151,1.2,0.47c0.28,0.312,0.42,0.693,0.42,1.132c0,0.435-0.14,0.81-0.42,1.124c-0.279,0.299-0.678,0.459-1.2,0.459
	s-0.917-0.16-1.197-0.459c-0.268-0.314-0.405-0.689-0.405-1.124C405.148,149.555,405.286,149.18,405.573,148.873 M412.18,143.907
	c-1.346-1.013-3.037-1.515-5.024-1.515c-2.076,0-3.844,0.534-5.313,1.614c-1.604,1.199-2.403,2.81-2.403,4.818
	c0,1.036,0.277,2.072,0.853,3.125c0.505,0.854,1.007,1.7,1.533,2.537c0.558,0.992,0.827,1.961,0.827,2.913v3.112h2.16v-7.925
	c0.159,0.1,0.293,0.163,0.395,0.189c0.598,0.23,1.123,0.339,1.544,0.339c1.011,0,1.804-0.323,2.388-0.967
	c0.514-0.586,0.783-1.312,0.783-2.18c0-0.854-0.27-1.566-0.81-2.177c-0.594-0.665-1.373-0.996-2.361-0.996
	c-1.255,0-2.218,0.422-2.886,1.268c-0.674,0.853-1.004,1.913-1.004,3.196v1.6c-0.072-0.412-0.307-1.05-0.718-1.919
	c-0.318-0.709-0.488-1.395-0.488-2.068c0-1.511,0.559-2.698,1.688-3.575c1.012-0.781,2.262-1.18,3.729-1.18
	c1.433,0,2.632,0.379,3.61,1.136c1.076,0.857,1.616,2.001,1.616,3.456v11.803h2.16v-11.935
	C414.459,146.605,413.702,145.047,412.18,143.907 M385.219,186.037c0.413,0.188,0.938,0.479,1.563,0.896
	c0.49,0.362,0.789,0.805,0.929,1.323c0.075,0.271,0.107,0.718,0.107,1.359v5.232c0,0.65-0.09,1.072-0.293,1.264
	c-0.205,0.207-0.649,0.295-1.349,0.295h-3.021v-11.021C383.93,185.539,384.613,185.762,385.219,186.037 M380.845,183.398
	l-1.771,0.127c0.209-0.299,0.387-0.506,0.532-0.649c0.433-0.438,0.849-0.657,1.239-0.657V183.398z M385.414,182.498
	c1.584,0.642,2.656,0.964,3.204,0.964c0.373,0,0.726-0.04,1.072-0.115c0.345-0.076,0.726-0.207,1.154-0.387l-0.513-1.861
	c-0.404,0.199-0.767,0.335-1.062,0.41c-0.308,0.084-0.603,0.12-0.877,0.12c-0.111,0-1.003-0.303-2.656-0.913
	c-0.743-0.259-1.568-0.395-2.499-0.395c-1.654,0-2.983,0.395-3.998,1.196c-0.707,0.565-1.237,1.322-1.6,2.268
	c-0.098,0.402-0.201,0.801-0.293,1.195c0.42-0.04,0.827-0.056,1.222-0.056c0.376,0.008,0.769,0.024,1.163,0.044
	c0.387,0.008,0.789,0.012,1.196,0.012v11.427h-2.232v1.825h7.563c1.533,0,2.545-0.211,3.037-0.625
	c0.482-0.419,0.726-1.332,0.726-2.759v-5.192c0-0.794-0.084-1.42-0.239-1.89c-0.153-0.471-0.472-0.961-0.969-1.467
	c-0.481-0.582-1.249-1.12-2.302-1.63c-1.169-0.566-2.241-0.85-3.238-0.85v-1.813C383.914,182.008,384.621,182.167,385.414,182.498
	 M321.529,196.563c-0.289,0.303-0.695,0.463-1.21,0.463c-0.518,0-0.921-0.16-1.199-0.479c-0.281-0.314-0.423-0.693-0.423-1.132
	c0-0.446,0.142-0.825,0.423-1.136c0.278-0.312,0.682-0.467,1.199-0.467c0.515,0,0.921,0.16,1.21,0.486
	c0.275,0.323,0.42,0.693,0.42,1.116C321.949,195.873,321.805,196.248,321.529,196.563 M320.361,192.215
	c-0.217,0-0.452,0.023-0.739,0.075c-0.067,0.012-0.151,0.028-0.251,0.04v-11.658h-2.212v14.743c0,0.988,0.303,1.762,0.933,2.327
	c0.569,0.515,1.307,0.777,2.228,0.777c1.017,0,1.813-0.318,2.392-0.973c0.521-0.586,0.775-1.314,0.775-2.176
	s-0.255-1.582-0.775-2.172C322.133,192.541,321.352,192.215,320.361,192.215 M410.9,196.292c-0.341,0.398-0.708,0.594-1.095,0.594
	c-0.398,0-0.596-0.195-0.596-0.594v-4.241c0.779,0.092,1.302,0.239,1.576,0.423c0.486,0.343,0.722,1.044,0.722,2.093
	C411.508,195.248,411.313,195.829,410.9,196.292 M398.386,184.789c-0.306,0.319-0.726,0.479-1.284,0.479
	c-0.558,0-0.984-0.151-1.281-0.45c-0.295-0.307-0.437-0.686-0.437-1.132c0-0.423,0.142-0.789,0.446-1.112
	c0.306-0.314,0.731-0.474,1.271-0.474c0.559,0,0.999,0.167,1.317,0.506c0.289,0.295,0.423,0.657,0.423,1.08
	C398.842,184.104,398.687,184.475,398.386,184.789 M409.33,190.437v-9.757h-2.192v9.913c-1.12,0.167-2.192,0.514-3.185,1.028
	c-1.437,0.753-2.687,1.829-3.736,3.236v-11.196c0-0.904-0.279-1.662-0.857-2.279c-0.55-0.622-1.311-0.925-2.258-0.925
	c-1.028,0-1.837,0.327-2.44,0.984c-0.544,0.594-0.802,1.315-0.802,2.176c0,0.857,0.275,1.603,0.852,2.221
	c0.569,0.621,1.362,0.924,2.391,0.924c0.18,0,0.339-0.008,0.49-0.031c0.156-0.036,0.306-0.06,0.421-0.096v11.598h2.204
	c0.801-1.57,1.813-2.901,3.043-3.981c1.222-1.072,2.513-1.726,3.878-1.949v4.372c0,0.522,0.235,0.934,0.693,1.248
	c0.456,0.311,1.011,0.462,1.68,0.462c0.951,0,1.778-0.295,2.47-0.889c0.793-0.673,1.178-1.622,1.178-2.846
	c0-1.471-0.385-2.563-1.178-3.3C411.32,190.744,410.436,190.437,409.33,190.437 M332.994,180.321c-1.499,0-2.941,0.351-4.322,1.068
	c-0.971,0.515-1.863,1.184-2.707,2.009c-0.305,0.371-0.609,0.726-0.933,1.076c0.982,0,1.936,0.247,2.878,0.745
	c0.297,0.155,0.651,0.398,1.074,0.718c-0.658,0.278-1.15,0.642-1.469,1.08c-0.438,0.59-0.66,1.406-0.66,2.471v8.744h2.213v-8.828
	c0-1.239,0.456-2.22,1.383-2.921c0.287-0.224,0.741-0.454,1.347-0.674c-0.875-0.749-1.829-1.299-2.865-1.67
	c-0.18-0.06-0.387-0.119-0.642-0.195c0.743-0.63,1.534-1.092,2.363-1.399c0.833-0.303,1.686-0.454,2.559-0.454
	c1.308,0,2.346,0.331,3.169,0.997c0.883,0.713,1.335,1.718,1.335,2.993v12.151h2.26v-12.151c0-1.897-0.636-3.349-1.901-4.353
	C336.878,180.792,335.193,180.321,332.994,180.321 M336.413,156.583c0.293-0.322,0.682-0.474,1.196-0.474
	c0.514,0,0.92,0.159,1.207,0.481c0.279,0.331,0.419,0.706,0.419,1.137c0,0.458-0.14,0.845-0.419,1.155
	c-0.287,0.315-0.693,0.475-1.207,0.475c-0.522,0-0.921-0.159-1.208-0.475c-0.283-0.311-0.423-0.697-0.423-1.155
	C335.979,157.285,336.122,156.891,336.413,156.583 M336.844,149.18c0.319-0.227,0.791-0.338,1.438-0.338
	c0.061-0.017,0.144-0.028,0.256-0.028c1.219,0,2.534,1.327,3.919,3.956c1.15,2.168,1.939,4.284,2.378,6.356
	c0.008,0.116,0.018,0.239,0.018,0.363v0.776c0,0.132-0.01,0.216-0.018,0.256h2.154v-12.059c0-1.85-0.668-3.3-1.983-4.353
	c-1.265-1.004-2.893-1.503-4.91-1.503c-1.628,0-3.154,0.415-4.555,1.224c-1.129,0.666-1.957,1.423-2.476,2.284l1.415,1.04
	c0.592-0.853,1.323-1.515,2.194-1.992c0.96-0.522,2.059-0.785,3.302-0.785c1.53,0,2.714,0.347,3.559,1.027
	c0.829,0.686,1.25,1.706,1.25,3.058v5.697c-0.421-1.892-1.315-3.633-2.685-5.219c-1.136-1.315-2.375-1.981-3.704-1.981
	c-0.205,0-0.359,0.008-0.451,0.016c-1.358,0.144-2.351,0.686-2.975,1.61c-0.584,0.846-0.869,2.045-0.869,3.596v5.402
	c0,0.673,0.311,1.358,0.929,2.053c0.716,0.78,1.578,1.18,2.579,1.18c0.988,0,1.762-0.295,2.339-0.894
	c0.564-0.602,0.85-1.366,0.85-2.295c0-0.821-0.279-1.527-0.85-2.133c-0.604-0.67-1.383-1-2.339-1c-0.371,0-0.714,0.063-1.053,0.171
	c-0.1,0.036-0.223,0.076-0.339,0.159v-4.003C336.218,150.037,336.419,149.487,336.844,149.18 M354.385,173.454
	c-0.224,0.247-0.524,0.375-0.913,0.375c-0.395,0-0.699-0.128-0.909-0.383c-0.211-0.255-0.322-0.546-0.322-0.885
	c0-0.335,0.115-0.638,0.341-0.9c0.209-0.264,0.502-0.387,0.891-0.387s0.689,0.123,0.913,0.387c0.215,0.263,0.334,0.565,0.334,0.9
	C354.719,172.908,354.6,173.211,354.385,173.454 M362.192,170.764c-0.777,1.16-1.231,1.817-1.35,1.985
	c-0.793,1-1.655,1.793-2.58,2.388c-0.455,0.223-0.825,0.37-1.116,0.418c-0.301,0.06-0.682,0.084-1.146,0.084h-0.76
	c0.271-0.251,0.454-0.471,0.576-0.674c0.362-0.613,0.54-1.383,0.54-2.3c0-0.741-0.255-1.387-0.762-1.925
	c-0.506-0.53-1.211-0.801-2.124-0.801c-0.81,0-1.442,0.247-1.907,0.741c-0.452,0.49-0.691,1.111-0.691,1.857
	c0,0.649,0.151,1.188,0.456,1.618c0.323,0.43,0.726,0.725,1.233,0.893c0.248,0.044,0.49,0.067,0.692,0.067
	c0.083,0,0.199-0.008,0.332-0.023c0.136-0.021,0.239-0.024,0.312-0.044c-0.107,0.271-0.415,0.617-0.929,1.028
	c-0.511,0.414-0.777,0.673-0.813,0.789c-0.031,0.199,0.159,0.362,0.586,0.486c0.144,0.035,0.356,0.067,0.642,0.111
	c0.088,0.04,0.157,0.056,0.203,0.056c0.355,0.076,0.779,0.107,1.275,0.107c0.503,0,1.076-0.056,1.698-0.163
	c0.63-0.119,1.304-0.307,2.032-0.574c0.731-0.271,1.405-0.661,2.063-1.18c0.457-0.383,0.971-0.904,1.537-1.563V170.764z
	 M438.764,172.765c0.793-0.565,1.657-0.841,2.586-0.841c0.178,0,0.306,0.004,0.395,0.016c1.505,0.16,2.7,0.674,3.596,1.539
	c0.54,0.525,1.026,1.291,1.465,2.308c-0.429-0.255-0.798-0.438-1.129-0.57c-0.992-0.391-2.155-0.665-3.499-0.805
	c-0.516-0.052-0.885-0.088-1.105-0.088h-0.775c-0.708,0-1.407,0.036-2.106,0.088c-0.228,0.016-0.506,0.052-0.845,0.092
	C437.538,173.865,438.002,173.287,438.764,172.765 M439.664,175.909c0.937,0,1.871,0.04,2.792,0.128
	c0.908,0.084,1.971,0.274,3.162,0.574c0.817,0.195,1.637,0.426,2.455,0.697c0.337,0.111,0.662,0.223,0.993,0.339
	c-0.16-0.693-0.319-1.26-0.473-1.698c-0.04-0.132-0.102-0.291-0.184-0.458v-7.218h-1.907v4.097
	c-0.406-0.387-0.757-0.678-1.084-0.869c-0.923-0.59-2.003-0.996-3.242-1.207c-0.276-0.044-0.558-0.068-0.827-0.068
	c-1.576,0-3.011,0.603-4.309,1.778c-1.291,1.184-2.092,2.59-2.389,4.225c0.602-0.08,1.092-0.144,1.479-0.168
	C437.295,175.961,438.465,175.909,439.664,175.909 M423.451,156.567c0.286-0.318,0.688-0.479,1.209-0.479
	c0.526,0,0.938,0.172,1.248,0.511c0.271,0.291,0.406,0.665,0.406,1.096c0,0.435-0.142,0.821-0.44,1.128
	c-0.285,0.323-0.688,0.482-1.214,0.482c-0.521,0-0.923-0.159-1.209-0.482c-0.291-0.307-0.433-0.693-0.433-1.128
	C423.019,157.265,423.16,156.887,423.451,156.567 M421.518,136.726v20.97c0,1,0.295,1.77,0.867,2.304
	c0.576,0.538,1.333,0.805,2.275,0.805c1.005,0,1.792-0.334,2.363-0.992c0.522-0.59,0.783-1.315,0.783-2.176
	c0-0.861-0.261-1.587-0.783-2.177c-0.558-0.649-1.314-0.972-2.279-0.972c-0.218,0-0.421,0.008-0.568,0.043
	c-0.171,0.028-0.341,0.053-0.508,0.084v-18.036c0-1.89-0.584-3.249-1.754-4.082c-0.433-0.311-1.367-0.789-2.784-1.458
	c0.229-0.151,0.425-0.268,0.572-0.335c0.477-0.228,0.961-0.339,1.451-0.339c0.386,0,1.345,0.303,2.883,0.908
	c0.676,0.271,1.284,0.407,1.832,0.407c0.426,0,0.862-0.084,1.307-0.243c0.455-0.172,0.921-0.423,1.399-0.777l-0.913-1.435
	c-0.351,0.234-0.655,0.406-0.925,0.498c-0.271,0.092-0.558,0.136-0.868,0.136c-0.433,0-1.156-0.22-2.131-0.646
	c-0.99-0.442-1.841-0.661-2.584-0.661c-1.266,0-2.56,0.462-3.878,1.391c-0.421,0.295-0.947,0.75-1.57,1.379
	c2.775,1.208,4.474,2.104,5.077,2.694C421.272,134.513,421.518,135.414,421.518,136.726 M299.821,184.806
	c-0.286,0.303-0.669,0.462-1.147,0.462c-0.488,0-0.869-0.159-1.14-0.462c-0.259-0.312-0.393-0.682-0.393-1.12
	s0.134-0.81,0.393-1.124c0.271-0.312,0.651-0.462,1.14-0.462c0.49,0,0.885,0.167,1.182,0.506c0.261,0.295,0.389,0.657,0.389,1.08
	C300.244,184.124,300.103,184.494,299.821,184.806 M299.628,195.806c0,0.343-0.075,0.598-0.213,0.765
	c-0.142,0.168-0.32,0.252-0.548,0.252c-0.354,0-0.647-0.176-0.885-0.53c-0.201-0.235-0.356-0.53-0.471-0.877
	c-0.109-0.347-0.171-0.71-0.171-1.084c0-0.61,0.159-1.116,0.482-1.519c0.313-0.415,0.803-0.618,1.442-0.618
	c0.149,0,0.279,0.008,0.362,0.024V195.806z M309.363,195.467c-0.1,0.371-0.279,0.546-0.552,0.546c-0.233,0-0.54-0.14-0.903-0.438
	c-0.364-0.295-0.793-0.729-1.271-1.307c-0.609-0.81-1.408-1.61-2.427-2.412c-1.048-0.841-1.842-1.263-2.363-1.263v-6.932
	c0-0.912-0.287-1.678-0.841-2.296c-0.57-0.605-1.348-0.908-2.332-0.908c-1.011,0-1.817,0.327-2.432,0.984
	c-0.535,0.594-0.797,1.315-0.797,2.176c0,0.857,0.262,1.587,0.797,2.177c0.595,0.649,1.384,0.968,2.396,0.968
	c0.222,0,0.407-0.008,0.57-0.031c0.155-0.036,0.291-0.06,0.42-0.096v3.958c-1.257,0-2.235,0.414-2.959,1.247
	c-0.632,0.726-0.944,1.618-0.944,2.683c0,1.012,0.287,1.869,0.86,2.599c0.64,0.772,1.467,1.151,2.495,1.151
	c0.913,0,1.599-0.263,2.066-0.789c0.465-0.522,0.7-1.312,0.7-2.352v-1.12c0-0.199,0-0.438,0.008-0.721
	c0.012-0.279,0.016-0.423,0.032-0.423c0.314,0.075,0.785,0.414,1.418,1.013c0.632,0.609,1.268,1.219,1.897,1.837
	c0.186,0.247,0.456,0.566,0.808,0.977c0.201,0.235,0.54,0.626,1.016,1.168c0.377,0.347,0.992,0.521,1.838,0.521
	c0.717,0,1.314-0.151,1.812-0.462c0.567-0.354,0.845-0.873,0.845-1.547V180.68h-2.156V195.467z M355.022,144.62
	c0.259-0.295,0.627-0.454,1.096-0.454c0.456,0,0.829,0.159,1.1,0.475c0.264,0.307,0.403,0.661,0.403,1.072
	c0,0.431-0.14,0.781-0.403,1.08c-0.271,0.291-0.644,0.442-1.1,0.442c-0.469,0-0.837-0.151-1.096-0.45
	c-0.256-0.308-0.387-0.662-0.387-1.072C354.636,145.286,354.767,144.928,355.022,144.62 M352.493,150.503
	c0.54,0.81,1.367,1.392,2.465,1.766c-0.667,0.18-1.147,0.383-1.462,0.604c-0.953,0.705-1.441,1.813-1.441,3.319v4.329h9.261
	c1.519,0,2.522-0.204,3.015-0.626c0.492-0.415,0.742-1.327,0.742-2.758v-14.167h-2.207v14.167c0,0.642-0.083,1.056-0.278,1.259
	c-0.191,0.208-0.614,0.312-1.271,0.312h-7.017v-2.516c0-0.937,0.281-1.678,0.833-2.231c0.56-0.55,1.409-0.829,2.541-0.829
	c0.031,0,0.052-0.111,0.06-0.311c0.008-0.21,0.008-0.413,0.008-0.624s0-0.423-0.016-0.622c-0.021-0.207-0.034-0.307-0.052-0.307
	c-0.938,0-1.762-0.251-2.466-0.757c-0.891-0.634-1.333-1.57-1.333-2.794c0.17,0.243,0.333,0.414,0.492,0.51
	c0.457,0.327,1.045,0.486,1.752,0.486c0.956,0,1.714-0.311,2.279-0.925c0.503-0.57,0.758-1.26,0.758-2.076
	c0-0.841-0.255-1.555-0.758-2.137c-0.565-0.649-1.323-0.969-2.279-0.969c-1.287,0-2.359,0.551-3.236,1.631
	c-0.801,0.996-1.199,2.164-1.199,3.507C351.683,148.773,351.945,149.694,352.493,150.503 M209.596,184.789
	c-0.303,0.319-0.733,0.479-1.271,0.479c-0.573,0-0.996-0.151-1.301-0.45c-0.289-0.307-0.438-0.686-0.438-1.132
	c0-0.423,0.149-0.789,0.456-1.112c0.305-0.314,0.729-0.474,1.283-0.474c0.538,0,0.979,0.167,1.296,0.506
	c0.289,0.295,0.431,0.657,0.431,1.08C210.051,184.104,209.9,184.475,209.596,184.789 M221.903,192.613
	c-0.462-0.925-0.797-1.662-1.04-2.192c-0.743-1.618-1.258-2.778-1.524-3.487c-0.827-1.965-1.401-3.687-1.704-5.153
	c-0.044-0.251-0.096-0.55-0.153-0.885h-1.645c-0.123,0.917-0.286,1.726-0.479,2.427c-0.354,1.216-0.812,2.455-1.384,3.719
	l-2.546,5.572v-8.952c0-0.904-0.285-1.662-0.842-2.279c-0.573-0.622-1.325-0.925-2.262-0.925c-1.03,0-1.837,0.318-2.435,0.965
	c-0.515,0.577-0.785,1.291-0.785,2.152c0,0.881,0.271,1.609,0.807,2.203c0.608,0.658,1.401,0.984,2.413,0.984
	c0.172,0,0.329-0.008,0.482-0.031c0.151-0.036,0.295-0.06,0.421-0.096v11.598h2.2l0.354-1.94c0.221-0.646,0.438-1.212,0.64-1.687
	c0.558-1.398,1.268-2.984,2.124-4.754c0.712-1.675,1.283-3.468,1.738-5.393c0.067-0.335,0.155-0.75,0.253-1.236
	c0.088,0.339,0.169,0.678,0.271,1.013c0.249,0.881,0.515,1.71,0.783,2.467c0.398,1.132,0.819,2.177,1.292,3.149
	c0.677,1.45,1.188,2.614,1.546,3.491c0.231,0.59,0.515,1.311,0.817,2.191c0.081,0.251,0.165,0.507,0.247,0.758l0.41,1.94h2.156
	V180.68h-2.156V192.613z M466.066,156.583c0.287-0.322,0.686-0.474,1.189-0.474c0.524,0,0.919,0.159,1.206,0.481
	c0.279,0.331,0.425,0.706,0.425,1.137c0,0.458-0.146,0.845-0.425,1.155c-0.287,0.315-0.682,0.475-1.206,0.475
	c-0.516,0-0.918-0.159-1.201-0.475c-0.285-0.311-0.427-0.697-0.427-1.155C465.628,157.285,465.779,156.891,466.066,156.583
	 M474.651,144.11c-1.253-1.004-2.884-1.503-4.91-1.503c-1.624,0-3.148,0.415-4.552,1.224c-1.13,0.666-1.957,1.423-2.479,2.284
	l1.417,1.04c0.59-0.853,1.333-1.515,2.191-1.992c0.965-0.522,2.059-0.785,3.307-0.785c1.536,0,2.714,0.347,3.559,1.027
	c0.833,0.686,1.25,1.706,1.25,3.058v5.697c-0.425-1.892-1.319-3.633-2.685-5.219c-1.136-1.315-2.377-1.981-3.709-1.981
	c-0.201,0-0.354,0.008-0.438,0.016c-1.359,0.144-2.355,0.686-2.985,1.61c-0.574,0.846-0.859,2.045-0.859,3.596v5.402
	c0,0.673,0.301,1.358,0.927,2.053c0.707,0.78,1.566,1.18,2.57,1.18c0.989,0,1.76-0.295,2.338-0.894
	c0.572-0.602,0.859-1.366,0.859-2.295c0-0.821-0.287-1.527-0.854-2.133c-0.598-0.67-1.387-1-2.344-1
	c-0.36,0-0.715,0.063-1.052,0.171c-0.102,0.036-0.226,0.076-0.337,0.159v-4.003c0-0.785,0.199-1.335,0.63-1.643
	c0.313-0.227,0.787-0.338,1.433-0.338c0.062-0.017,0.146-0.028,0.266-0.028c1.213,0,2.524,1.327,3.919,3.956
	c1.139,2.168,1.932,4.284,2.372,6.356c0.014,0.116,0.014,0.239,0.014,0.363v0.776c0,0.132,0,0.216-0.014,0.256h2.148v-12.059
	C476.635,146.613,475.979,145.163,474.651,144.11 M266.205,189.62c-0.267,0.322-0.655,0.482-1.142,0.482
	c-0.519,0-0.898-0.16-1.166-0.482c-0.267-0.312-0.406-0.698-0.406-1.145c0-0.438,0.14-0.816,0.425-1.147
	c0.286-0.318,0.655-0.482,1.147-0.482c0.506,0,0.893,0.164,1.159,0.475c0.268,0.322,0.389,0.697,0.389,1.155
	C266.611,188.922,266.479,189.309,266.205,189.62 M270.78,181.848c-1.301-1.023-2.986-1.526-5.071-1.526
	c-1.634,0-3.141,0.446-4.52,1.348c-1.084,0.701-1.869,1.511-2.363,2.411l1.605,1.028c0.566-0.885,1.22-1.574,1.965-2.061
	c0.961-0.634,2.049-0.957,3.274-0.957c1.547,0,2.721,0.323,3.521,0.969c0.877,0.71,1.319,1.79,1.319,3.24v8.991
	c0,0.367-0.104,0.646-0.291,0.821c-0.191,0.188-0.418,0.279-0.705,0.279c-0.271,0-0.509-0.1-0.706-0.295
	c-0.191-0.203-0.293-0.463-0.293-0.806v-6.927c0-0.86-0.416-1.59-1.261-2.2c-0.72-0.514-1.451-0.777-2.192-0.777
	c-1.013,0-1.821,0.323-2.413,0.969c-0.538,0.594-0.812,1.308-0.812,2.16c0,0.846,0.273,1.543,0.793,2.108
	c0.574,0.634,1.367,0.953,2.378,0.953c0.289,0,0.592-0.076,0.929-0.208c0.102-0.043,0.232-0.111,0.389-0.195v4.197
	c0,0.937,0.334,1.678,1.012,2.22c0.606,0.498,1.352,0.737,2.242,0.737c0.851,0,1.588-0.239,2.178-0.737
	c0.638-0.542,0.967-1.283,0.967-2.22v-9.246C272.726,184.295,272.076,182.864,270.78,181.848 M485.12,135.06
	c0.799-0.566,1.68-0.854,2.594-0.854c0.178,0,0.304,0.008,0.405,0.028c1.494,0.151,2.694,0.665,3.595,1.542
	c0.53,0.515,1.019,1.283,1.457,2.304c-0.423-0.251-0.8-0.446-1.13-0.574c-0.993-0.395-2.16-0.657-3.498-0.801
	c-0.525-0.06-0.887-0.084-1.105-0.084h-0.779c-0.705,0-1.401,0.024-2.104,0.084c-0.229,0.021-0.512,0.044-0.845,0.084
	C483.895,136.159,484.376,135.573,485.12,135.06 M486.021,138.204c0.95,0,1.881,0.039,2.798,0.127
	c0.915,0.084,1.975,0.271,3.173,0.566c0.807,0.203,1.626,0.431,2.444,0.701c0.337,0.107,0.668,0.228,0.995,0.335
	c-0.162-0.689-0.31-1.247-0.469-1.69c-0.036-0.139-0.105-0.286-0.189-0.466v-7.218h-1.905v4.097
	c-0.402-0.378-0.757-0.665-1.073-0.868c-0.935-0.59-2.011-0.984-3.251-1.208c-0.282-0.032-0.558-0.056-0.829-0.056
	c-1.576,0-3.009,0.59-4.31,1.77c-1.29,1.18-2.091,2.595-2.384,4.225c0.598-0.084,1.086-0.136,1.475-0.167
	C483.659,138.256,484.829,138.204,486.021,138.204 M456.438,156.567c0.293-0.318,0.691-0.479,1.214-0.479
	c0.521,0,0.946,0.172,1.247,0.511c0.271,0.291,0.404,0.665,0.404,1.096c0,0.435-0.144,0.821-0.438,1.128
	c-0.284,0.323-0.691,0.482-1.213,0.482c-0.522,0-0.921-0.159-1.214-0.482c-0.287-0.307-0.431-0.693-0.431-1.128
	C456.007,157.265,456.15,156.887,456.438,156.567 M454.149,130.364c0.381,0,1.346,0.303,2.878,0.908
	c0.678,0.271,1.283,0.407,1.837,0.407c0.421,0,0.854-0.084,1.298-0.243c0.458-0.172,0.921-0.423,1.402-0.777l-0.912-1.435
	c-0.351,0.234-0.656,0.406-0.925,0.498c-0.271,0.092-0.558,0.136-0.863,0.136c-0.438,0-1.147-0.22-2.14-0.646
	c-0.979-0.442-1.838-0.661-2.575-0.661c-1.268,0-2.561,0.462-3.884,1.391c-0.425,0.295-0.946,0.75-1.57,1.379
	c2.784,1.208,4.47,2.104,5.078,2.694c0.49,0.498,0.743,1.399,0.743,2.711v20.97c0,1,0.287,1.77,0.854,2.304
	c0.576,0.538,1.346,0.805,2.28,0.805c1.014,0,1.787-0.334,2.371-0.992c0.521-0.59,0.781-1.315,0.781-2.176
	c0-0.861-0.261-1.587-0.781-2.177c-0.566-0.649-1.323-0.972-2.277-0.972c-0.228,0-0.423,0.008-0.582,0.043
	c-0.168,0.028-0.327,0.053-0.496,0.084v-18.036c0-1.89-0.58-3.249-1.756-4.082c-0.438-0.311-1.365-0.789-2.79-1.458
	c0.229-0.151,0.42-0.268,0.572-0.335C453.171,130.476,453.653,130.364,454.149,130.364 M207.516,144.852
	c0.269-0.303,0.642-0.462,1.138-0.462c0.49,0,0.883,0.167,1.178,0.502c0.257,0.299,0.383,0.661,0.383,1.08
	c0,0.438-0.136,0.813-0.423,1.124s-0.657,0.462-1.138,0.462c-0.496,0-0.869-0.151-1.138-0.462c-0.268-0.311-0.406-0.686-0.406-1.124
	S207.248,145.163,207.516,144.852 M209.607,158.098c0,0.339-0.071,0.59-0.211,0.762c-0.146,0.171-0.333,0.251-0.55,0.251
	c-0.351,0-0.655-0.176-0.893-0.522c-0.195-0.243-0.354-0.538-0.467-0.877c-0.105-0.347-0.159-0.705-0.159-1.088
	c0-0.605,0.155-1.112,0.475-1.526c0.313-0.406,0.793-0.609,1.44-0.609c0.159,0,0.277,0,0.364,0.02V158.098z M205.425,145.916
	c0,0.856,0.27,1.574,0.795,2.164c0.595,0.657,1.396,0.98,2.392,0.98c0.22,0,0.41-0.02,0.574-0.044
	c0.149-0.023,0.285-0.06,0.422-0.084v3.948c-1.259,0-2.243,0.414-2.961,1.247c-0.632,0.733-0.952,1.626-0.952,2.679
	c0,1.017,0.282,1.881,0.868,2.599c0.63,0.777,1.455,1.164,2.487,1.164c0.921,0,1.608-0.26,2.072-0.79
	c0.467-0.533,0.698-1.318,0.698-2.355v-1.119c0-0.195,0.004-0.442,0.012-0.718c0-0.279,0.016-0.419,0.033-0.419
	c0.306,0.064,0.775,0.403,1.417,1.009c0.624,0.605,1.264,1.216,1.899,1.837c0.176,0.235,0.444,0.566,0.799,0.969
	c0.22,0.247,0.557,0.626,1.013,1.168c0.389,0.354,0.996,0.522,1.842,0.522c0.725,0,1.318-0.151,1.817-0.467
	c0.56-0.343,0.841-0.856,0.841-1.53v-15.705h-2.154v14.792c-0.102,0.363-0.277,0.547-0.54,0.547c-0.247,0-0.548-0.148-0.911-0.447
	c-0.372-0.295-0.791-0.725-1.275-1.307c-0.598-0.802-1.406-1.603-2.429-2.403c-1.055-0.854-1.846-1.271-2.363-1.271v-6.925
	c0-0.921-0.281-1.679-0.846-2.292c-0.56-0.618-1.335-0.921-2.321-0.921c-1.022,0-1.831,0.327-2.434,0.997
	C205.694,144.325,205.425,145.055,205.425,145.916 M484.669,144.62c0.271-0.295,0.628-0.454,1.099-0.454
	c0.452,0,0.827,0.159,1.094,0.475c0.27,0.307,0.406,0.661,0.406,1.072c0,0.431-0.137,0.781-0.406,1.08
	c-0.267,0.291-0.642,0.442-1.094,0.442c-0.471,0-0.827-0.151-1.099-0.45c-0.253-0.308-0.389-0.662-0.389-1.072
	C484.28,145.286,484.416,144.928,484.669,144.62 M492.519,157.138c0,0.642-0.089,1.056-0.282,1.259
	c-0.195,0.208-0.616,0.312-1.275,0.312h-7.017v-2.516c0-0.937,0.278-1.678,0.837-2.231c0.556-0.55,1.406-0.829,2.545-0.829
	c0.029,0,0.043-0.111,0.05-0.311c0.012-0.21,0.012-0.413,0.012-0.624s0-0.423-0.019-0.622c-0.014-0.207-0.033-0.307-0.043-0.307
	c-0.947,0-1.768-0.251-2.468-0.757c-0.896-0.634-1.335-1.57-1.335-2.794c0.172,0.243,0.337,0.414,0.49,0.51
	c0.465,0.327,1.044,0.486,1.754,0.486c0.952,0,1.718-0.311,2.275-0.925c0.508-0.57,0.762-1.26,0.762-2.076
	c0-0.841-0.254-1.555-0.762-2.137c-0.558-0.649-1.323-0.969-2.275-0.969c-1.283,0-2.363,0.551-3.236,1.631
	c-0.806,0.996-1.204,2.164-1.204,3.507c0,1.028,0.273,1.949,0.813,2.758c0.542,0.81,1.365,1.392,2.463,1.766
	c-0.666,0.18-1.147,0.383-1.457,0.604c-0.956,0.705-1.444,1.813-1.444,3.319v4.329h9.259c1.519,0,2.519-0.204,3.019-0.626
	c0.49-0.415,0.743-1.327,0.743-2.758v-14.167h-2.204V157.138z M338.733,134.481c0.253-0.299,0.621-0.438,1.075-0.438
	c0.457,0,0.812,0.159,1.097,0.486c0.247,0.278,0.364,0.626,0.364,1.032c0,0.41-0.125,0.757-0.376,1.06
	c-0.26,0.295-0.618,0.438-1.085,0.438c-0.454,0-0.822-0.144-1.075-0.438c-0.256-0.303-0.375-0.649-0.375-1.06
	C338.358,135.135,338.478,134.772,338.733,134.481 M339.136,138.985c1.163,0.533,2.662,0.797,4.479,0.797
	c1.969,0,3.801-0.602,5.49-1.813c1.576-1.128,2.604-2.459,3.087-4.01l-1.739-0.873c-0.407,1.407-1.246,2.575-2.523,3.504
	c-1.27,0.916-2.656,1.379-4.139,1.379c-0.068,0-0.151,0.008-0.26,0.02c-0.313,0-0.693-0.063-1.138-0.188
	c-0.138-0.035-0.301-0.079-0.508-0.167c0.638-0.565,0.96-1.308,0.96-2.22c0-0.802-0.243-1.475-0.753-2.033
	c-0.562-0.598-1.323-0.9-2.284-0.9c-0.944,0-1.699,0.327-2.275,0.988c-0.504,0.586-0.757,1.3-0.757,2.116
	c0,0.151,0,0.268,0.014,0.351C336.936,137.303,337.717,138.323,339.136,138.985 M383.114,147.084
	c-0.299,0.311-0.726,0.474-1.273,0.474c-0.575,0-0.996-0.151-1.301-0.454c-0.285-0.307-0.438-0.674-0.438-1.132
	c0-0.419,0.153-0.793,0.456-1.1c0.305-0.323,0.724-0.482,1.283-0.482c0.548,0,0.975,0.167,1.306,0.502
	c0.279,0.299,0.431,0.661,0.431,1.08C383.577,146.395,383.417,146.765,383.114,147.084 M395.544,160.525v-13.581
	c0-1.072-0.245-1.965-0.76-2.702c-0.588-0.841-1.425-1.271-2.487-1.271c-1.13,0-2.243,0.613-3.342,1.821
	c-0.833,0.921-1.651,2.184-2.479,3.822c-0.301,0.63-0.815,1.813-1.532,3.523v-6.182c0-0.901-0.287-1.662-0.846-2.284
	c-0.575-0.617-1.315-0.929-2.258-0.929c-1.032,0-1.847,0.354-2.457,1.057c-0.528,0.621-0.797,1.375-0.797,2.26
	c0,0.833,0.251,1.542,0.751,2.132c0.496,0.59,1.202,0.885,2.095,0.885c0.169,0,0.307,0,0.408-0.016l0.911-0.128v11.593h2.192
	c0-1.782,0.456-3.978,1.349-6.564c0.829-2.378,1.821-4.49,2.972-6.327c1.142-1.838,2.103-2.758,2.861-2.758
	c0.534,0,0.881,0.263,1.044,0.785c0.088,0.255,0.142,0.686,0.142,1.283v13.581H395.544z M238.143,195.423
	c0,0.431-0.138,0.81-0.412,1.132c-0.279,0.311-0.666,0.471-1.172,0.471s-0.893-0.16-1.172-0.471
	c-0.279-0.322-0.414-0.701-0.414-1.132c0-0.438,0.135-0.817,0.414-1.132c0.279-0.318,0.666-0.479,1.172-0.479
	s0.906,0.168,1.195,0.506C238.018,194.618,238.143,194.984,238.143,195.423 M239.644,181.262c-0.315,0.08-0.606,0.112-0.865,0.112
	c-0.398,0-0.902-0.116-1.53-0.339c-1.298-0.479-2.459-0.714-3.458-0.714c-1.257,0-2.446,0.454-3.577,1.367
	c-0.908,0.749-1.684,1.694-2.315,2.834c0.949,0.167,1.726,0.299,2.3,0.402c1.648,0.311,3.087,0.61,4.337,0.885
	c1.207,0.354,1.99,0.706,2.343,1.08c0.475,0.506,0.71,1.447,0.71,2.826v2.618c-0.168-0.02-0.347-0.056-0.542-0.08
	c-0.203-0.027-0.387-0.039-0.57-0.039c-0.986,0-1.773,0.326-2.363,0.992c-0.519,0.59-0.789,1.315-0.789,2.164
	c0,0.861,0.271,1.59,0.807,2.176c0.59,0.654,1.401,0.98,2.43,0.98c0.944,0,1.706-0.278,2.304-0.829
	c0.59-0.546,0.883-1.307,0.883-2.275v-5.807c0-1.579-0.178-2.679-0.521-3.276c-0.504-0.857-1.588-1.479-3.24-1.865
	c-0.865-0.191-1.897-0.454-3.085-0.781c-0.438-0.111-1.012-0.271-1.753-0.479c0.06-0.188,0.382-0.426,0.974-0.701
	c0.59-0.279,1.15-0.423,1.67-0.423c0.62,0,1.652,0.279,3.107,0.841c0.638,0.256,1.245,0.383,1.793,0.383
	c0.363,0,0.743-0.044,1.132-0.135c0.387-0.092,0.81-0.235,1.271-0.431l-0.396-1.865
	C240.301,181.066,239.948,181.194,239.644,181.262 M246,182.199c0.26-0.3,0.628-0.455,1.116-0.455c0.473,0,0.853,0.172,1.14,0.49
	c0.235,0.279,0.361,0.63,0.361,1.053c0,0.414-0.134,0.772-0.396,1.072c-0.26,0.303-0.632,0.458-1.104,0.458
	s-0.845-0.159-1.104-0.475c-0.264-0.303-0.399-0.657-0.399-1.056C245.613,182.864,245.749,182.502,246,182.199 M248.846,187.244
	c1.545,0,2.874-0.211,3.988-0.625c1.111-0.419,2.002-1.021,2.666-1.802v-3.719c-0.863,1.16-1.79,2.081-2.764,2.738
	c-0.674,0.458-1.403,0.785-2.181,0.992c-0.37,0.104-0.653,0.147-0.869,0.147c0.363-0.49,0.551-1.076,0.551-1.77
	c0-0.821-0.251-1.503-0.762-2.053c-0.569-0.613-1.396-0.929-2.447-0.929c-0.914,0-1.664,0.343-2.258,1.005
	c-0.567,0.669-0.866,1.45-0.866,2.339c0,1.024,0.376,1.87,1.136,2.531C245.921,186.857,247.184,187.244,248.846,187.244
	 M251.586,142.607c-1.55,0-2.834,0.407-3.844,1.208c-0.77,0.605-1.453,1.507-2.076,2.727l1.605,0.737
	c0.351-0.921,0.891-1.643,1.635-2.185c0.741-0.53,1.634-0.789,2.68-0.789c1.122,0,2.022,0.299,2.696,0.929
	c0.678,0.613,1.013,1.486,1.013,2.61v12.677h2.264v-12.721c0-1.602-0.578-2.886-1.738-3.834
	C254.738,143.066,253.322,142.607,251.586,142.607 M446.269,195.423c0,0.431-0.146,0.81-0.425,1.132
	c-0.268,0.311-0.655,0.471-1.16,0.471c-0.514,0-0.902-0.16-1.182-0.471c-0.271-0.322-0.404-0.701-0.404-1.132
	c0-0.438,0.134-0.817,0.404-1.132c0.279-0.318,0.668-0.479,1.182-0.479c0.505,0,0.899,0.168,1.196,0.506
	C446.131,194.618,446.269,194.984,446.269,195.423 M447.757,181.262c-0.307,0.08-0.598,0.112-0.865,0.112
	c-0.389,0-0.893-0.116-1.519-0.339c-1.314-0.479-2.461-0.714-3.467-0.714c-1.256,0-2.434,0.454-3.567,1.367
	c-0.907,0.749-1.686,1.694-2.327,2.834c0.964,0.167,1.729,0.299,2.312,0.402c1.646,0.311,3.085,0.61,4.324,0.885
	c1.207,0.354,1.992,0.706,2.346,1.08c0.483,0.506,0.721,1.447,0.721,2.826v2.618c-0.171-0.02-0.356-0.056-0.552-0.08
	c-0.191-0.027-0.387-0.039-0.563-0.039c-0.995,0-1.78,0.326-2.372,0.992c-0.521,0.59-0.783,1.315-0.783,2.164
	c0,0.861,0.27,1.59,0.813,2.176c0.586,0.654,1.395,0.98,2.427,0.98c0.935,0,1.704-0.278,2.29-0.829
	c0.592-0.546,0.896-1.307,0.896-2.275v-5.807c0-1.579-0.185-2.679-0.534-3.276c-0.502-0.857-1.582-1.479-3.228-1.865
	c-0.877-0.191-1.907-0.454-3.085-0.781c-0.438-0.111-1.022-0.271-1.758-0.479c0.062-0.188,0.389-0.426,0.982-0.701
	c0.588-0.279,1.147-0.423,1.658-0.423c0.613,0,1.662,0.279,3.114,0.841c0.638,0.256,1.248,0.383,1.784,0.383
	c0.374,0,0.743-0.044,1.13-0.135c0.393-0.092,0.813-0.235,1.285-0.431l-0.407-1.865
	C448.429,181.066,448.073,181.194,447.757,181.262 M248.34,195.239c-0.27,0.287-0.653,0.427-1.14,0.427
	c-0.494,0-0.877-0.14-1.148-0.427c-0.267-0.299-0.406-0.642-0.406-1.048c0-0.414,0.146-0.766,0.435-1.061
	c0.275-0.299,0.647-0.438,1.12-0.438c0.486,0,0.87,0.14,1.14,0.438c0.259,0.295,0.395,0.646,0.395,1.061
	C248.734,194.598,248.599,194.94,248.34,195.239 M252.792,194.697c-0.716,0.49-1.435,0.837-2.152,1.028
	c-0.354,0.104-0.653,0.155-0.893,0.155c0.354-0.482,0.532-1.067,0.532-1.758c0-0.824-0.254-1.534-0.758-2.107
	c-0.582-0.646-1.393-0.965-2.453-0.965c-0.908,0-1.662,0.335-2.244,1.008c-0.594,0.674-0.877,1.459-0.877,2.36
	c0,1.032,0.375,1.881,1.137,2.555c0.866,0.781,2.144,1.163,3.802,1.163c1.563,0,2.901-0.211,3.998-0.629
	c1.115-0.423,1.99-1.041,2.654-1.842v-3.715C254.707,193.104,253.796,194.023,252.792,194.697 M240.337,147.052
	c-0.279,0.311-0.674,0.462-1.182,0.462c-0.505,0-0.891-0.151-1.182-0.462c-0.287-0.311-0.421-0.674-0.421-1.096
	c0-0.438,0.134-0.81,0.421-1.116c0.291-0.303,0.677-0.45,1.182-0.45c0.523,0,0.929,0.167,1.233,0.486
	c0.243,0.278,0.373,0.642,0.373,1.08C240.762,146.378,240.622,146.741,240.337,147.052 M229.829,147.084
	c-0.31,0.311-0.728,0.474-1.286,0.474c-0.554,0-0.984-0.151-1.279-0.454c-0.299-0.307-0.446-0.674-0.446-1.132
	c0-0.419,0.147-0.793,0.467-1.1c0.293-0.323,0.724-0.482,1.259-0.482c0.559,0,0.997,0.167,1.319,0.502
	c0.287,0.299,0.419,0.661,0.419,1.08C230.281,146.395,230.134,146.765,229.829,147.084 M241.939,147.554
	c0.267-0.51,0.402-1.048,0.402-1.638c0-0.861-0.27-1.591-0.802-2.176c-0.598-0.67-1.398-0.997-2.385-0.997
	c-1.028,0-1.85,0.335-2.447,1.013c-0.54,0.59-0.808,1.323-0.808,2.2c0,0.49,0.098,0.956,0.285,1.387
	c0.186,0.446,0.473,0.797,0.835,1.084c-0.06,0-0.412,0.22-1.056,0.674c-0.917,0.634-1.666,1.255-2.256,1.881
	c-0.905,0.944-1.589,1.932-2.061,2.979v-8.005c0-0.901-0.268-1.662-0.839-2.284c-0.564-0.617-1.317-0.929-2.267-0.929
	c-1.025,0-1.833,0.327-2.442,0.997c-0.53,0.585-0.802,1.314-0.802,2.176c0,0.856,0.287,1.59,0.85,2.216
	c0.573,0.618,1.369,0.929,2.395,0.929c0.16,0,0.315-0.02,0.475-0.044c0.151-0.023,0.307-0.06,0.442-0.084v11.593h2.188v-0.698
	c0-1.741,0.598-3.578,1.781-5.491c1.359-2.167,3.11-3.789,5.291-4.869c0.281,0.176,0.504,0.354,0.644,0.522
	c0.431,0.546,0.649,1.315,0.649,2.279v8.257h2.244v-8.257c0-1.167-0.255-2.112-0.777-2.829c-0.167-0.228-0.431-0.463-0.783-0.718
	C241.245,148.435,241.66,148.048,241.939,147.554"/>
</svg>
