<?xml version="1.0" encoding="utf-8"?>
<!-- Generator: Adobe Illustrator 16.0.0, SVG Export Plug-In . SVG Version: 6.00 Build 0)  -->
<!DOCTYPE svg PUBLIC "-//W3C//DTD SVG 1.1//EN" "http://www.w3.org/Graphics/SVG/1.1/DTD/svg11.dtd">
<svg version="1.1" id="Layer_1" xmlns="http://www.w3.org/2000/svg" xmlns:xlink="http://www.w3.org/1999/xlink" x="0px" y="0px"
	 width="241.324px" height="130.176px" viewBox="0 0 241.324 130.176" enable-background="new 0 0 241.324 130.176"
	 xml:space="preserve">
<path fill="#F04E23" d="M68.523,25.805c1.495,0,2.709-1.211,2.709-2.705c0-1.495-1.214-2.705-2.709-2.705s-2.708,1.21-2.708,2.705
	C65.815,24.594,67.028,25.805,68.523,25.805 M75.896,25.805c1.499,0,2.71-1.211,2.71-2.705c0-1.495-1.211-2.705-2.71-2.705
	c-1.494,0-2.706,1.21-2.706,2.705C73.189,24.594,74.401,25.805,75.896,25.805 M16.602,70.157l5.281-4.408l14.521,18.607h7.955
	L26.491,62.233L44.44,46.325h-7.948L16.602,63.878V46.325h-6.425v38.031h6.425V70.157z M112.763,40.554
	c1.495,0,2.708-1.211,2.708-2.704c0-1.494-1.213-2.705-2.708-2.705c-1.496,0-2.707,1.211-2.707,2.705
	C110.056,39.343,111.268,40.554,112.763,40.554 M83.271,11.057c1.495,0,2.708-1.211,2.708-2.707c0-1.493-1.213-2.704-2.708-2.704
	c-1.497,0-2.709,1.211-2.709,2.704C80.563,9.846,81.774,11.057,83.271,11.057 M83.271,33.179c1.495,0,2.708-1.21,2.708-2.705
	c0-1.493-1.213-2.703-2.708-2.703c-1.497,0-2.709,1.21-2.709,2.703C80.563,31.969,81.774,33.179,83.271,33.179 M83.271,18.431
	c1.495,0,2.708-1.21,2.708-2.705c0-1.493-1.213-2.705-2.708-2.705c-1.497,0-2.709,1.212-2.709,2.705
	C80.563,17.221,81.774,18.431,83.271,18.431 M38.151,107.252c0,7.938-3.05,11.691-10.855,11.691c-7.82,0-10.87-3.753-10.87-11.691
	V86.77h-6.25v22.4c0,9.555,6.071,15.476,17.12,15.476c11.032,0,17.109-5.921,17.109-15.476V91.652h12.058v33.059h6.36V91.652h9.738
	v33.059h6.356V91.652h9.631V86.77H38.151V107.252z M83.271,25.805c1.495,0,2.708-1.211,2.708-2.705c0-1.495-1.213-2.705-2.708-2.705
	c-1.497,0-2.709,1.21-2.709,2.705C80.563,24.594,81.774,25.805,83.271,25.805 M67.84,76.366L54.944,46.325H46.86v38.031h6.362v-27
	l11.815,27h5.401l11.759-26.974v26.974h6.365V46.325h-8.029L67.84,76.366z M98.016,20.395c-1.495,0-2.707,1.21-2.707,2.705
	c0,1.494,1.212,2.705,2.707,2.705c1.497,0,2.71-1.211,2.71-2.705C100.727,21.605,99.513,20.395,98.016,20.395 M108.099,37.85
	c0-1.494-1.213-2.705-2.711-2.705c-1.496,0-2.707,1.211-2.707,2.705c0,1.493,1.211,2.704,2.707,2.704
	C106.886,40.554,108.099,39.343,108.099,37.85 M98.016,35.145c-1.495,0-2.707,1.211-2.707,2.705c0,1.493,1.212,2.704,2.707,2.704
	c1.497,0,2.71-1.211,2.71-2.704C100.727,36.356,99.513,35.145,98.016,35.145 M98.016,27.771c-1.495,0-2.707,1.21-2.707,2.703
	c0,1.495,1.212,2.705,2.707,2.705c1.497,0,2.71-1.21,2.71-2.705C100.727,28.981,99.513,27.771,98.016,27.771 M98.016,42.519
	c-1.495,0-2.707,1.209-2.707,2.705c0,1.493,1.212,2.703,2.707,2.703c1.497,0,2.71-1.21,2.71-2.703
	C100.727,43.728,99.513,42.519,98.016,42.519 M90.644,35.145c-1.494,0-2.707,1.211-2.707,2.705c0,1.493,1.213,2.704,2.707,2.704
	c1.497,0,2.708-1.211,2.708-2.704C93.352,36.356,92.14,35.145,90.644,35.145 M90.644,20.395c-1.494,0-2.707,1.21-2.707,2.705
	c0,1.494,1.213,2.705,2.707,2.705c1.497,0,2.708-1.211,2.708-2.705C93.352,21.605,92.14,20.395,90.644,20.395 M98.016,49.893
	c-1.495,0-2.707,1.213-2.707,2.706c0,1.494,1.212,2.705,2.707,2.705c1.497,0,2.71-1.211,2.71-2.705
	C100.727,51.106,99.513,49.893,98.016,49.893 M83.271,40.554c1.495,0,2.708-1.211,2.708-2.704c0-1.494-1.213-2.705-2.708-2.705
	c-1.497,0-2.709,1.211-2.709,2.705C80.563,39.343,81.774,40.554,83.271,40.554 M151.65,94.872v5.812h1.406v-5.645
	c0-1.842-0.691-3.129-2.953-3.129c-1.23,0-2.186,0.486-2.783,1.552h-0.041v-1.356h-1.322v8.578h1.406v-4.847
	c0-1.549,0.832-2.689,2.547-2.689C150.985,93.147,151.65,93.83,151.65,94.872 M204.359,54.761h-1.891l-3.914,3.754v-7.023h-1.412
	v11.853h1.412v-3.256l1.326-1.232l2.941,4.488h1.785l-3.652-5.465L204.359,54.761z M152.846,118.308
	c-1.945,0-2.709-1.562-2.709-3.25c0-1.609,0.729-3.241,2.625-3.241c1.826,0,2.654,1.561,2.654,3.172
	C155.416,116.667,154.773,118.308,152.846,118.308 M152.963,110.575c-1.182,0-2.277,0.414-2.738,1.362h-0.041v-4.429h-1.406v11.844
	h1.406v-1.149h0.041c0.629,1.017,1.888,1.347,2.773,1.347c2.617,0,3.91-2.039,3.91-4.463
	C156.908,112.667,155.607,110.575,152.963,110.575 M198.738,81.375c-1.748,0-2.584-1.122-2.584-2.782c0-2.011,1.271-4.51,3.561-4.51
	c1.674,0,2.52,1.089,2.52,2.684C202.234,78.76,201.025,81.375,198.738,81.375 M199.896,73.194c-3.055,0-4.773,2.692-4.773,5.502
	c0,2.135,1.205,3.566,3.406,3.566c3.172,0,4.75-2.822,4.75-5.715C203.279,74.443,201.883,73.194,199.896,73.194 M165.26,115.619
	c0,1.54-0.828,2.689-2.541,2.689c-1.078,0-1.744-0.681-1.744-1.727v-5.81h-1.406v5.645c0,1.838,0.699,3.133,2.955,3.133
	c1.225,0,2.182-0.49,2.779-1.558h0.041v1.36h1.326v-8.58h-1.41V115.619z M189.994,62.196c-1.865,0-2.426-1.729-2.426-3.273
	c0-1.636,0.732-3.115,2.533-3.115c1.777,0,2.438,1.558,2.438,3.07C192.539,60.483,191.848,62.196,189.994,62.196 M193.939,62.609
	v-7.848h-1.33v1.226h-0.014c-0.518-0.941-1.475-1.432-2.559-1.432c-2.969,0-3.969,2.509-3.969,4.537
	c0,2.339,1.277,4.346,3.836,4.346c1.084,0,2.205-0.511,2.672-1.561h0.033v0.564c0,1.926-0.73,3.254-2.572,3.254
	c-0.93,0-2.156-0.36-2.223-1.393h-1.41c0.074,1.876,1.945,2.523,3.547,2.523C192.662,66.827,193.939,65.399,193.939,62.609
	 M142.655,110.575c-1.229,0-2.192,0.498-2.791,1.555h-0.033v-1.357h-1.326v8.58h1.41v-4.847c0-1.541,0.836-2.688,2.537-2.688
	c1.08,0,1.748,0.686,1.748,1.726v5.81h1.412v-5.637C145.612,111.865,144.909,110.575,142.655,110.575 M133.161,97.542h-1.445
	c-0.186,1.299-0.992,2.089-2.355,2.089c-1.795,0-2.504-1.552-2.504-3.135c0-1.736,0.629-3.35,2.67-3.35
	c1.164,0,1.912,0.631,2.125,1.709h1.467c-0.213-2.037-1.768-2.946-3.707-2.946c-2.723,0-4.051,2.018-4.051,4.587
	c0,2.563,1.396,4.384,4.016,4.384C131.53,100.88,132.841,99.631,133.161,97.542 M207.547,72.205l-0.266,1.243h-1.477l-0.199,0.881
	h1.492l-1.697,7.684h1.045l1.699-7.684h1.674l0.199-0.881h-1.689l0.248-1.197c0.199-0.843,0.531-1.207,1.512-1.207
	c0.213,0,0.432,0.063,0.645,0.096l0.184-0.859c-0.35-0.104-0.717-0.117-1.082-0.117C208.414,70.163,207.811,70.938,207.547,72.205
	 M141.425,94.872v5.812h1.414v-5.645c0-1.842-0.704-3.129-2.958-3.129c-1.027,0-2.236,0.424-2.701,1.454h-0.037V88.83h-1.402v11.854
	h1.402v-4.847c0-1.549,0.834-2.689,2.541-2.689C140.759,93.147,141.425,93.83,141.425,94.872 M131.678,118.308
	c-1.467,0-2.667-1.165-2.667-3.234c0-2.098,1.2-3.257,2.667-3.257c1.482,0,2.678,1.159,2.678,3.257
	C134.356,117.143,133.161,118.308,131.678,118.308 M131.678,110.575c-2.717,0-4.16,1.969-4.16,4.499c0,2.508,1.443,4.476,4.16,4.476
	c2.725,0,4.168-1.968,4.168-4.476C135.846,112.543,134.403,110.575,131.678,110.575 M175.082,99.631
	c-1.475,0-2.676-1.156-2.676-3.227c0-2.098,1.201-3.258,2.676-3.258c1.477,0,2.67,1.16,2.67,3.258
	C177.752,98.475,176.559,99.631,175.082,99.631 M175.082,91.91c-2.717,0-4.164,1.964-4.164,4.495c0,2.5,1.447,4.476,4.164,4.476
	c2.725,0,4.166-1.976,4.166-4.476C179.248,93.874,177.807,91.91,175.082,91.91 M169.49,62.296c-1.475,0-2.672-1.165-2.672-3.235
	c0-2.093,1.197-3.254,2.672-3.254c1.479,0,2.676,1.161,2.676,3.254C172.166,61.131,170.969,62.296,169.49,62.296 M173.658,59.061
	c0-2.522-1.443-4.506-4.168-4.506c-2.73,0-4.164,1.983-4.164,4.506c0,2.504,1.434,4.475,4.164,4.475
	C172.215,63.536,173.658,61.565,173.658,59.061 M121.91,110.575c-1.034,0-2.238,0.427-2.709,1.459h-0.031v-4.525h-1.409v11.844
	h1.409v-4.847c0-1.541,0.834-2.688,2.539-2.688c1.078,0,1.748,0.686,1.748,1.726v5.81h1.4v-5.637
	C124.858,111.865,124.166,110.575,121.91,110.575 M120.792,54.761h-1.41v8.583h1.41V54.761z M185.355,99.53
	c-1.857,0-2.418-1.709-2.418-3.268c0-1.638,0.729-3.115,2.537-3.115c1.771,0,2.436,1.563,2.436,3.071
	C187.91,97.827,187.215,99.53,185.355,99.53 M187.973,93.335h-0.016c-0.51-0.952-1.479-1.426-2.545-1.426
	c-2.975,0-3.973,2.504-3.973,4.523c0,2.339,1.281,4.348,3.828,4.348c1.086,0,2.209-0.514,2.678-1.553h0.027v0.558
	c0,1.931-0.727,3.254-2.561,3.254c-0.934,0-2.166-0.367-2.232-1.397h-1.404c0.08,1.883,1.936,2.523,3.553,2.523
	c2.701,0,3.98-1.429,3.98-4.216v-7.845h-1.336V93.335z M195.621,99.122h-0.023l-2.512-7.017h-1.588l3.398,8.524l-0.576,1.462
	c-0.27,0.497-0.582,0.785-1.164,0.785c-0.281,0-0.561-0.115-0.83-0.204v1.303c0.314,0.112,0.646,0.149,0.979,0.149
	c1.266,0,1.84-0.627,2.494-2.3l3.73-9.72h-1.494L195.621,99.122z M181.77,84.2c-0.279,0-0.57-0.117-0.818-0.195v1.293
	c0.309,0.119,0.637,0.149,0.969,0.149c1.26,0,1.846-0.607,2.484-2.291l3.744-9.726h-1.498l-2.402,7.024h-0.033l-2.504-7.024h-1.598
	l3.4,8.532l-0.576,1.456C182.67,83.919,182.357,84.2,181.77,84.2 M171.643,70.163h-1.422v1.728h1.422V70.163z M176.395,109.231
	h1.412v-1.723h-1.412V109.231z M170.221,82.012h1.422V73.43h-1.422V82.012z M171.1,112.583h-0.037v-1.812h-1.32v8.58h1.404v-3.816
	c0-2.17,0.836-3.471,3.107-3.471v-1.49C172.723,110.52,171.785,111.206,171.1,112.583 M176.395,119.352h1.412v-8.58h-1.412V119.352z
	 M166.787,100.683h1.41V88.83h-1.41V100.683z M231.434,58.393c-1.314-0.306-2.818-0.479-2.818-1.492
	c0-0.866,0.984-1.094,1.838-1.094c0.926,0,1.887,0.345,2,1.437h1.402c-0.111-2.089-1.633-2.688-3.518-2.688
	c-1.498,0-3.211,0.717-3.211,2.443c0,1.645,1.414,2.111,2.807,2.424c1.42,0.318,2.809,0.494,2.809,1.597
	c0,1.078-1.195,1.277-2.082,1.277c-1.156,0-2.248-0.399-2.301-1.662h-1.416c0.088,2.126,1.707,2.901,3.639,2.901
	c1.742,0,3.652-0.667,3.652-2.706C234.234,59.168,232.842,58.708,231.434,58.393 M131.93,70.163h-1.414v1.728h1.414V70.163z
	 M119.404,93.147c1.387,0,2.403,1.078,2.465,2.424h-4.926C117.047,94.259,117.926,93.147,119.404,93.147 M123.229,97.958h-1.382
	c-0.256,1.113-1.064,1.673-2.227,1.673c-1.874,0-2.726-1.323-2.676-2.814h6.43c0.084-2.073-0.849-4.907-3.889-4.907
	c-2.343,0-4.034,1.881-4.034,4.463c0.078,2.616,1.373,4.508,4.119,4.508C121.49,100.88,122.855,99.848,123.229,97.958
	 M138.304,80.585h-0.026l-2.414-7.155h-1.578l3.191,8.582h1.504l3.146-8.582h-1.479L138.304,80.585z M137.77,55.807
	c1.785,0,2.447,1.558,2.447,3.07c0,1.605-0.699,3.318-2.555,3.318s-2.426-1.729-2.426-3.273
	C135.237,57.287,135.964,55.807,137.77,55.807 M137.569,63.438c1.084,0,2.211-0.511,2.679-1.561h0.034v0.564
	c0,1.926-0.727,3.254-2.571,3.254c-0.931,0-2.155-0.36-2.224-1.393h-1.416c0.086,1.876,1.942,2.523,3.56,2.523
	c2.703,0,3.979-1.428,3.979-4.218v-7.848h-1.328v1.226h-0.014c-0.52-0.941-1.479-1.432-2.558-1.432c-2.965,0-3.97,2.509-3.97,4.537
	C133.741,61.431,135.022,63.438,137.569,63.438 M130.518,82.012h1.413V73.43h-1.413V82.012z M116.924,77.728v-7.565h-1.575v7.565
	c0,2.093-1.09,3.236-3.087,3.236c-2.085,0-3.28-1.144-3.28-3.236v-7.565h-1.577v7.565c0,3.161,1.81,4.569,4.857,4.569
	C115.216,82.297,116.924,80.717,116.924,77.728 M125.393,58.493c0-1.54,0.826-2.686,2.536-2.686c1.082,0,1.746,0.68,1.746,1.727
	v5.811h1.419v-5.646c0-1.84-0.707-3.144-2.959-3.144c-1.23,0-2.191,0.506-2.789,1.566h-0.033v-1.36h-1.33v8.583h1.41V58.493z
	 M107.473,51.492v11.853h1.568V59.19l1.982-1.84l4.28,5.994h1.996l-5.202-7.081l4.996-4.771h-2.039l-6.013,5.906v-5.906H107.473z
	 M120.223,73.43v8.582h1.405v-4.844c0-1.545,0.825-2.694,2.537-2.694c1.075,0,1.743,0.683,1.743,1.73v5.808h1.4v-5.645
	c0-1.847-0.688-3.137-2.951-3.137c-1.229,0-2.184,0.498-2.779,1.562h-0.038V73.43H120.223z M111.737,100.683v-10.52h3.953V88.83
	h-9.487v1.334h3.96v10.52H111.737z M120.792,51.492h-1.41v1.723h1.41V51.492z M163.797,74.474c0.926,0,1.898,0.351,1.992,1.446
	h1.414c-0.119-2.093-1.631-2.689-3.521-2.689c-1.496,0-3.203,0.72-3.203,2.438c0,1.645,1.406,2.108,2.801,2.423
	c1.416,0.321,2.811,0.501,2.811,1.599c0,1.078-1.199,1.273-2.076,1.273c-1.16,0-2.256-0.4-2.305-1.661h-1.412
	c0.086,2.133,1.707,2.909,3.631,2.909c1.752,0,3.652-0.666,3.652-2.707c0-1.662-1.395-2.127-2.801-2.441
	c-1.316-0.31-2.809-0.481-2.809-1.49C161.971,74.708,162.955,74.474,163.797,74.474 M177.729,58.493c0-1.54,0.824-2.686,2.537-2.686
	c1.074,0,1.742,0.68,1.742,1.727v5.811h1.404v-5.646c0-1.84-0.691-3.144-2.953-3.144c-1.23,0-2.191,0.506-2.781,1.566h-0.037v-1.36
	h-1.336v8.583h1.424V58.493z M175.365,80.132c0,1.579,0.58,1.88,2.043,1.88h1.08v-1.243h-0.652c-0.873,0-1.061-0.118-1.061-0.764
	v-5.33h1.713V73.43h-1.713v-2.573h-1.41v2.573h-1.457v1.245h1.457V80.132z M106.204,108.838h3.96v10.514h1.574v-10.514h3.953v-1.33
	h-9.487V108.838z M212.357,59.606c0,1.545-0.826,2.69-2.539,2.69c-1.076,0-1.74-0.681-1.74-1.733v-5.802h-1.412v5.635
	c0,1.849,0.697,3.14,2.953,3.14c1.23,0,2.191-0.495,2.789-1.561h0.033v1.369h1.336v-8.583h-1.42V59.606z M159.881,93.147
	c1.479,0,2.68,1.16,2.68,3.258c0,2.07-1.201,3.227-2.68,3.227c-1.477,0-2.67-1.156-2.67-3.227
	C157.211,94.307,158.404,93.147,159.881,93.147 M159.881,100.88c2.721,0,4.168-1.976,4.168-4.476c0-2.531-1.447-4.495-4.168-4.495
	c-2.723,0-4.162,1.964-4.162,4.495C155.719,98.905,157.158,100.88,159.881,100.88 M152.094,53.482h0.035l3.699,9.862h1.35
	l3.703-9.862h0.031v9.862h1.488V51.492h-2.15l-3.75,9.958l-3.738-9.958h-2.156v11.853h1.488V53.482z M223.43,53.328h0.984
	c0,0.768-0.223,1.61-0.969,1.61v0.837c1.273,0,1.83-1.128,1.83-2.447v-1.836h-1.846V53.328z M154.27,73.43v8.582h1.412v-3.82
	c0-2.171,0.828-3.465,3.104-3.465v-1.496c-1.527-0.046-2.473,0.631-3.156,2.009h-0.035v-1.81H154.27z M147.909,74.474
	c1.385,0,2.398,1.084,2.466,2.423h-4.931C145.544,75.589,146.419,74.474,147.909,74.474 M148.065,82.212
	c1.92,0,3.289-1.032,3.673-2.922h-1.396c-0.252,1.11-1.064,1.674-2.227,1.674c-1.879,0-2.723-1.323-2.672-2.822h6.425
	c0.08-2.071-0.846-4.911-3.888-4.911c-2.338,0-4.033,1.892-4.033,4.463C144.034,80.321,145.323,82.212,148.065,82.212
	 M218.844,52.187h-1.412v2.574h-1.451V56h1.451v5.465c0,1.575,0.588,1.879,2.045,1.879h1.082v-1.247h-0.652
	c-0.879,0-1.063-0.122-1.063-0.771V56h1.715v-1.239h-1.715V52.187z"/>
</svg>
